<!-- Generator: Adobe Illustrator 19.0.0, SVG Export Plug-In  -->
<svg version="1.1"
	 xmlns="http://www.w3.org/2000/svg" xmlns:xlink="http://www.w3.org/1999/xlink" xmlns:a="http://ns.adobe.com/AdobeSVGViewerExtensions/3.0/"
	 x="0px" y="0px" width="607.185px" height="183.103px" viewBox="0 0 607.185 183.103" enable-background="new 0 0 607.185 183.103"
	 xml:space="preserve">
<defs>
</defs>
<path fill="#565454" d="M393.709,22.581c0,0,4.563-3.296,8.075-0.353c0,0,4.126,6.518,2.042,6.598l-0.29,1.059l-0.111,0.822
	c0,0,0.366,1.925-0.217,2.749c0,0-0.146,0.628-0.146,1.255l-0.223,0.706c0,0,0.147,0.865-0.4,0.865c0,0,0.182,1.609-0.655,1.727
	c0,0,3.431,0.589,4.052,2.2c0.623,1.606,1.169,2.668,1.169,2.668l0.329,1.102c-0.072,0.193,1.352,2.667,2.448,5.57
	c0,0,0.769-2.238,0.951-3.414c0.181-1.176,0.217-3.846,0.327-4.239c0.111-0.391-0.035-0.941-0.11-1.1
	c-0.073-0.156-1.969-1.098-2.263-2.001c-0.295-0.904-0.949-3.143-0.949-3.453c0-0.317,1.058-1.57,1.095-0.906l0.034,0.316
	c0,0,0.989-1.18,1.318,0.078c0,0,1.133-0.668,1.315,0.587c0,0,0.583-0.785,1.387,0.511c0,0,1.424,1.847,1.424,3.06
	c0,1.221,0.075,2.356-0.034,2.75c-0.113,0.393-0.22,0.669-0.113,2.434c0.113,1.766-0.546,8.481-0.729,9.108
	c-0.181,0.629-0.694,2.202-0.694,2.749c0,0.551-0.546,3.453-3.176,1.924c0,0-1.865-1.178-2.118-1.571c0,0-0.329,1.1,0.035,2.198
	c0.365,1.1,2.558,5.103,2.667,6.322c0.109,1.213,0.511,2.39,0.803,3.413c0.292,1.022,2.851,12.797,2.082,15.468
	c0,0-0.146-0.04-0.546,0.117c-0.403,0.157-0.511,0.277-1.133,0.548c-0.62,0.275-1.461,0.199-1.461,0.199s-1.389,4.003-1.463,5.535
	c-0.072,1.528-0.146,3.571-0.218,4.314c-0.074,0.746-0.036,2.161,0.146,2.985c0.183,0.825,1.133,7.575-1.863,15.39
	c0,0-0.766,1.763-0.692,2.628c0.072,0.863-0.037,1.413-0.183,1.964c-0.148,0.55,0,0.669,0.109,1.373
	c0.109,0.706,0.474,1.964,0,2.749l-0.365,0.824c0,0-1.535,0.314-1.754,0.157c-0.218-0.157-0.107,0-0.107,0l-0.292-0.157
	c0,0-1.026,0.157-1.685,0.237c-0.655,0.077-1.313-0.982-1.496-1.65c-0.181-0.668,0.218-1.884,0.987-1.807l0.476,0.08
	c0,0,0.294-0.587,0.62-1.256c0.329-0.668,0.329-1.021,0.437-1.414c0.111-0.39,0.038-1.726,0.439-2.432
	c0.402-0.706,0.473-2.394,0.368-3.731c-0.111-1.333-0.915-5.536-0.476-9.463c0.437-3.924-0.257-5.1-0.257-5.217
	c0-0.12-0.292-1.65-0.365-4.437c-0.074-2.787,0.329-6.163,0.183-6.437c-0.146-0.276-1.899-0.434-2.376-0.198
	c-0.473,0.235-0.913,2.279-1.022,3.612c-0.109,1.333-2.411,7.811-2.959,8.481c-0.548,0.665-2.848,4.593-3.031,5.258
	c-0.183,0.67-2.667,5.261-2.996,5.732c-0.328,0.472-1.863,3.846-1.935,4.632c-0.074,0.784-0.475,2.711-0.183,3.415
	c0.292,0.708,0.878,1.965,0.984,2.279c0.111,0.313,0.437,0.707,0.731,0.824c0.292,0.115,2.814-0.706,1.718,1.807
	c0,0-0.582,1.569-2.302,1.646c-1.717,0.08-2.338-0.43-2.886-0.314c-0.55,0.118-2.446,0.277-2.74-0.589
	c-0.292-0.862-0.546-2.471-0.363-2.863c0,0-0.586-0.589-0.146-1.729c0.437-1.137,1.459-2.824,1.862-3.57
	c0.402-0.746,0.837-3.69,1.06-4.28c0.218-0.587,1.095-8.951,5.079-12.915c0,0,1.132-1.65,1.239-2.237
	c0.109-0.589,0.513-2.633,0.583-2.946c0.074-0.314,0.22-0.983,0.22-1.217c0-0.237-1.424-12.68-0.695-15.347
	c0,0,0.183-0.943,0.074-1.65c-0.111-0.707,1.204-4.046,1.095-6.164c-0.108-2.12,1.644-4.946,0.729-6.28
	c-0.911-1.336-2.007-3.688-2.261-4.553c-0.256-0.863-1.901-4.83-2.013-3.417c-0.109,1.417-1.387,7.5-2.081,8.637
	c-0.692,1.14-2.265,4.359-2.557,5.261c-0.293,0.903-1.204,3.297-1.861,3.964c-0.657,0.667-1.06,2.317-1.132,2.673
	c-0.074,0.351-0.365,1.017-1.572,1.685c-1.204,0.668-2.777,0.668-3.176,0.512c-0.403-0.157-1.061-0.55-1.318-0.354
	c-0.257,0.197-1.315,0.118-1.315,0.118s-2.118,0.235-2.557-0.277c0,0-1.57,0.079-1.278-0.275l0.257-0.315c0,0-0.806,0,0.035-0.35
	c0,0,1.607-0.587,2.629-0.902c1.025-0.318,1.425-0.747,2.668-0.708c1.244,0.04,2.812-0.197,3.032-0.511
	c0.219-0.313,1.097-1.767,1.389-2.473c0.291-0.703,1.166-5.377,1.495-6.28c0.332-0.902,1.172-4.319,1.61-4.947
	c0.439-0.627,1.68-4.08,1.68-5.22c0-1.136-0.841-11.464,3.359-12.72c0,0,0.729-1.099,0.621-1.569
	c-0.109-0.471-0.184-10.795,0.695-12.642C391.407,23.761,391.735,22.111,393.709,22.581z"/>
<path fill="#565454" d="M195.772,45.388c-0.226-2.081,4.761-19.646,4.91-20.539c0.154-0.895,7.593-4.987,8.265-5.286
	c0.669-0.297,2.005-1.339,2.005-1.339c0.229-0.895,1.42-2.753,1.42-2.753c0.221-0.744-0.451-3.128-0.451-3.128
	s-1.042-0.147-1.042-0.594c0-0.446-0.667-1.266-0.667-1.266c-1.266-2.011,0-2.308,0-2.308l-0.378-2.528
	c1.495-7.297,7.22-5.435,7.22-5.435c5.811-0.298,5.064,6.401,5.212,6.772c0.149,0.372,0,2.235-0.075,2.756
	c-0.073,0.521-0.297,2.158-0.297,3.051c0,0.895-1.714,3.348-2.084,3.794c-0.32,0.392-0.138,0.891-0.083,1.016v0.004l0.01,0.022
	c0.521,0.298,0.521,1.638,0.521,2.235l0.026,0.194l0.008,0.026c0.133,0.416,0.641,0.563,1.154,0.819
	c0.596,0.299,4.243,2.086,4.243,2.086c2.162,1.785,1.714,7.37,1.193,8.335c-0.518,0.969,0.224,3.798,0,5.507
	c-0.224,1.711,0,13.695,0.521,16.376c0.518,2.676-0.149,2.976-0.521,3.424l-0.034,0.07l-0.008,0.03l-0.018,0.083l-0.008,0.046
	l-0.008,0.113l-0.003,0.044l-0.008,0.191v0.025l0.008,0.204v0.069l0.003,0.192l0.008,0.077l0.016,0.238l0.002,0.043l0.034,0.319
	c0.18,1.987,0.659,5.031,0.761,5.846c0.154,1.19-0.745,5.582-1.039,6.4c-0.305,0.822-4.993,21.138-5.214,22.477
	c-0.222,1.34,0.221,9.155,0.445,10.196c0.224,1.043-0.07,2.233,0.373,2.83c0.448,0.595,3.798,2.081,3.798,2.081
	c4.54,0.82,3.873,2.904,3.873,2.904c-0.977,3.424-8.71,2.159-10.278,1.341c-1.56-0.819-2.227-0.147-2.529-0.074
	c-0.294,0.074-2.826,0.148-4.683-0.669c-1.863-0.819-0.451-4.02-0.3-4.391c0.148-0.374,0.073-1.192,0.073-1.192
	c-0.367-0.744,0.075-2.977,0.149-3.649c0.078-0.667-0.149-1.039-0.669-2.308c-0.521-1.263,0.078-11.162,0.078-11.162
	c-0.232-2.529-1.044,3.498-1.044,4.169c0,0.668-0.599,8.856-0.599,10.12c0,1.267-0.518,5.584-0.146,6.104
	c0.378,0.521,0,2.455,0,2.455s-0.966,1.191,2.008,3.723c2.977,2.529,2.977,5.286,2.977,5.286c-3.048,4.163-10.27-0.596-10.494-1.641
	c-0.219-1.041-1.19-1.265-1.19-1.265c-1.412-0.818-1.563-4.093-1.563-4.093c-0.675-0.297-0.521-1.339-0.372-1.86
	c0.154-0.524-0.521-2.753-0.669-3.722c-0.149-0.966,0.669-25.378,1.266-26.421c0.596-1.042-0.375-2.083,0.07-4.541
	c0.448-2.455,0.974-14.513,0.974-14.513l-2.31-2.305c-1.341,0-2.753-5.956-3.126-7.07c-0.378-1.119-1.789-6.104-1.789-6.477
	C195.694,46.581,195.772,45.388,195.772,45.388z"/>
<path fill="#565454" d="M289.862,119.167c-1.367-0.489-3.716-4.014-3.716-4.014c1.663-0.099,0.393-1.073,0.585-1.956
	c0.199-0.883-0.976-7.342-0.682-8.614c0.291-1.272-0.983-4.305-1.175-5.579c-0.201-1.273-0.393-4.798-0.201-9.886
	c0.201-5.093-0.684-15.075-0.684-15.075c1.767-1.468,3.235-5.777,3.235-5.777s0.585-2.445,0.585-2.738
	c0-0.296,0.687-3.526,1.369-4.115c0.684-0.586,0.885-6.166,1.078-6.949c0.199-0.782-0.294-1.663-0.393-2.153
	c-0.079-0.423-1.776-4.214-2.231-5.229c0.169-0.073,0.587-0.311,0.492-0.821l-0.023-0.074l0.002-0.042
	c0-0.489-1.172-2.548-1.563-3.917c-0.393-1.369-3.327-4.209-4.405-4.502c-1.082-0.292-1.568-0.392-1.961-0.88l-0.088-0.095
	l-0.042-0.032l-0.079-0.068l-0.065-0.043l-0.092-0.068l-0.069-0.046l-0.116-0.071l-0.069-0.045l-0.139-0.084l-0.065-0.038
	l-0.21-0.119l-0.049-0.026l-0.178-0.097l-0.074-0.039l-0.155-0.081l-0.072-0.038l-0.153-0.079l-0.069-0.036l-0.159-0.081
	l-0.046-0.021c-0.254-0.127-0.476-0.231-0.61-0.296v0.004l-0.143-0.068c0-0.587,0.592-4.504,0.592-4.504
	c0.194,0.296,0.682-0.097,0.682-0.097c0-0.295,0.592-1.86,0.592-1.86c0.294-0.88-0.204-0.977-0.204-0.977
	c0.497-2.349-0.488-4.699-0.488-4.699c-1.566-3.428-6.359-1.86-6.359-1.86c-3.232,0.784-2.548,6.165-2.548,6.165
	c-0.585-0.389-0.294,1.666-0.294,1.666c0,1.466,1.078,1.565,1.078,1.565c0,0.784,0.49,1.665,0.49,1.665l-0.097,2.64
	c-0.141-0.021-0.395,0.026-0.71,0.112l-0.014,0.004l-0.039,0.014l-0.185,0.056l-0.069,0.023l-0.178,0.06l-0.069,0.023l-0.245,0.089
	l-0.053,0.022l-0.199,0.074l-0.093,0.035l-0.169,0.073l-0.079,0.03l-0.238,0.098l-0.051,0.023l-0.185,0.08l-0.079,0.037
	l-0.152,0.064l-0.065,0.032l-0.192,0.089l-0.03,0.015l-0.139,0.069l-0.053,0.027l-0.099,0.05l-0.039,0.021l-0.099,0.054
	c-0.49,0.295-1.861,0.783-3.036,0.979c-1.177,0.199-3.718,2.451-4.014,3.233l-0.067,0.15l-0.002,0.016l-0.093,0.187l-0.014,0.031
	l-0.113,0.219l-0.023,0.044l-0.134,0.251l-0.021,0.037l-0.162,0.289v0.001c-0.116,0.214-0.247,0.441-0.377,0.668l-0.016,0.024
	l-0.192,0.342l-0.007,0.009c-0.553,0.942-1.101,1.865-1.27,2.146c-0.375,0.469,0.063,0.688,0.34,0.773l-0.194,0.291
	c-0.689,0.784-0.983,2.445-1.568,3.229c-0.59,0.784-1.667,3.72-1.667,4.209c0,0.488-0.49,0.979,0,1.761
	c0.49,0.784,0.684,0.784,0.978,2.058c0.298,1.273,2.745,6.362,2.937,6.851c0.199,0.49,0.983,2.447,1.274,3.82
	c0.291,1.369,2.053,3.913,2.053,3.913c-0.585,0.883-1.463,9.301-1.366,9.985c0.097,0.684-0.488,3.621-0.097,5.581
	c0.388,1.957-0.104,3.913-0.59,4.893c-0.49,0.978,0,2.84,0,3.328c0,0.489-1.369,4.305-1.859,5.775
	c-0.492,1.468-1.471,3.916-1.563,4.503c-0.099,0.586-0.393,7.146-1.082,8.418c-0.684,1.272,0.592,2.544,0.592,2.544h0.49
	c0,0.784-1.177,2.252-1.177,2.252s-0.391,0.784-1.179,1.565c-0.779,0.783,0.395,1.763,0.395,1.763
	c2.541,1.076,5.773-0.784,5.773-0.784c0.687,0.491,1.468-0.587,1.468-0.587c0.786-0.784,0.488-3.426,0.488-3.426
	c0.592,0,0.49-2.743,0.298-3.817c-0.194-1.076,0.782-4.6,0.976-5.776c0.199-1.176,1.175-3.231,1.568-4.6
	c0.391-1.372,2.837-8.419,3.131-10.574c0.296-2.154,0.983-5.97,1.665-6.851c0.687-0.88,2.546-6.655,2.546-7.733
	c0-1.076,1.961,4.993,2.058,6.558c0.095,1.566,1.857,9.496,1.956,10.081c0.097,0.587,1.468,2.936,1.369,4.7
	c-0.095,1.762,0.689,8.319,0.881,10.963c0.197,2.644,0,5.089,0,5.089l0.492,0.491c0,0,0,0-0.296,0.392
	c-0.296,0.392-0.296,2.934-0.296,2.934c-0.291,1.958,2.254,1.664,3.038,1.664c0.784,0,0.976-0.78,3.23,0.195
	c2.25,0.983,6.069,0.392,6.069,0.392C294.564,121.027,291.23,119.655,289.862,119.167z M263.242,65.428c0,0-1.471-0.784-1.568-1.761
	c-0.095-0.979-1.861-4.309-1.861-5.875c0-1.565-0.192-2.054-0.583-2.739c-0.393-0.687-0.296-1.471-0.102-1.763
	c0.194-0.295,2.451-3.328,2.742-4.502l0.233-0.553l0.053-0.083l0.06-0.085l0.06-0.079l0.118-0.139l0.067-0.069l0.065-0.063
	l0.069-0.061l0.067-0.054l0.069-0.05l0.062-0.047l0.067-0.042l0.069-0.038l0.058-0.027l0.081-0.032l0.039-0.012l0.107-0.02h0.03
	l0.055,0.006l0.032,0.012l0.046,0.023l0.021,0.022l0.025,0.042l0.014,0.031l0.014,0.067v0.037l-0.021,0.135
	c0,0,0.786,8.614,1.082,9.79l0.053,0.301l0.009,0.081l0.025,0.28v0.042v0.327v0.098l-0.016,0.267l-0.002,0.076l-0.037,0.33
	l-0.009,0.117l-0.028,0.228l-0.018,0.121l-0.037,0.272l-0.049,0.368L264.4,60.44c-0.044,0.338-0.083,0.639-0.083,0.877
	C264.317,62.197,263.242,65.136,263.242,65.428z M282.525,66.406c0,0-0.488-1.958-1.08-2.739c-0.377-0.506-0.509-1.302-0.557-2.221
	c-0.014-0.223-0.021-0.454-0.021-0.693l-0.002-0.18c-0.005-0.238-0.005-0.48-0.005-0.726c0-1.564,0.682-5.089,0.881-6.557
	c0.194-1.468,0.587-4.992,0.978-5.286c0,0-0.162,0.57,0.331,0.965v0.001l0.162,0.111l0.391,0.096c0,0,1.464,2.743,2.053,3.525
	c0.585,0.783,0.393,2.251,0.393,2.251s-0.784,4.502-0.393,6.069c0,0-0.197,3.328-0.883,3.914
	C284.09,65.528,282.819,65.625,282.525,66.406z"/>
<path fill="#565454" d="M119.34,39.043c-0.341-0.365-2.2-1.539-2.348-1.68c-0.146-0.146-1.666-1.49-2.107-1.607
	c-0.441-0.122-1.076-0.458-1.175-0.557c-0.1-0.091-1.96-1.701-2.45-1.797c-0.492-0.096-0.294-2.519-0.294-2.519
	s0.44-2.253-1.593-1.701c0,0-5.591,0.398-5.725,0.794c-0.134,0.398-0.537,1.456-3.109,1.063c-2.571-0.398-7.336-0.063-8.469,1.362
	c0,0-2.852,0.174-3.156-1.31c-0.301-1.485-0.788-5.347-2.125-6.478c-1.335-1.13-1.456-1.427-1.456-1.427s-2.485-3.029-6.669-1.068
	c0,0-3.7,1.542-3.037,4.754c0.669,3.209,0.608,3.326,1.759,4.516c1.154,1.188,1.339,1.844,1.456,2.079
	c0.122,0.24,1.698,1.605,2.489,1.901c0,0-1.818,1.607-2.366,1.961c-0.543,0.359-7.461,4.337-8.192,10.817
	c0,0-0.357,3.386-0.664,4.871c-0.304,1.487-1.03,3.269,0.121,4.342c1.152,1.063,1.698,0.946,1.698,0.946s-0.181,3.745-0.181,4.933
	c0,1.188-0.244,4.097-0.121,6.001c0.121,1.899,0.121,4.337,0.181,5.168c0.064,0.833-1.391,3.743-1.391,5.887
	c0,0-1.887,1.901-2.429,3.386c-0.546,1.485-4.672,9.387-4.368,12.719c0.302,3.323,0.185,2.373-0.304,3.501
	c-0.482,1.13-1.822,3.092-1.822,5.113c0,2.019-0.24,3.269,0,4.517c0.245,1.25,0,0.117,0,0.117s-1.152,0.594-1.573,1.073
	c-0.427,0.477-2.853,1.784-3.156,2.079c-0.294,0.289-6.013,1.607-5.841,4.459l0.017,0.174c0.425,2.974,3.577,4.816,7.525,3.266
	c0,0,2.911-1.719,4.85-2.139c1.943-0.414,3.153-1.128,3.153-1.542c0-0.419,1.215,0.357,1.641-0.419
	c0.425-0.771,1.152-5.936,1.818-7.963c0.667-2.019,1.455-4.454,2.307-5.644c0.849-1.19,4.003-9.267,5.033-10.395
	c1.033-1.131,2-3.209,2.184-3.626c0.18-0.417,3.7-6.066,5.946-5.056c2.244,1.016,1.879,2.198,3.58,3.805
	c1.694,1.602,3.456,3.923,3.943,4.634c0.481,0.713,1.513,1.188,2.729,2.558c1.214,1.367,0.608,2.318,1.214,4.871
	c0.605,2.558,1.15,6.301,1.455,7.309c0.302,1.008,0.302,0.654,0.363,3.149c0.064,2.498-0.609,5.532,1.879,6.478
	c2.49,0.951,3.16,0.833,3.16,0.833s-1.641,0.354-2.611,1.073c0,0-1.033,0.591-0.969,1.242c0,0-1.091,0.831,3.818,1.667
	c0,0,1.577-0.36,2.486,0.591c0.913,0.953,4.971-0.352,5.039-1.659c0.061-1.31-0.242-1.55-0.242-1.55l-0.791-2.019
	c0,0-1.578-4.454-1.821-6.892c-0.242-2.435-0.727-5.587-1.03-6.48c-0.303-0.888-0.423-6.595-1.155-7.603
	c-0.724-1.008-3.577-5.467-3.941-7.366c-0.363-1.901-2-9.806-1.395-10.817c0.607-1.013,2.486-4.16,2.546-8.262
	c0.065-4.097-0.909-3.683-0.85-5.644c0.062-1.959-0.604-9.747-1.574-12.002c-0.973-2.256-1.519-7.012-0.973-7.728
	c0.546-0.711,5.277-3.618,5.641-4.271c0.362-0.656,3.215-1.904,3.945-1.724c0,0,0.849-0.12,0.849,1.245c0,0,0.056,1.203,0.667,1.657
	c0.612,0.458,0.905,0.818,1.151,1.175c0.244,0.36,0.857,1.464,0.857,1.464s1.054,0.339,0.733-1.271c0,0-0.662-0.815-0.831-1.102
	c-0.174-0.286-0.711-1.776,0.025-1.396c0,0,0.438,0.362,0.689,0.748c0.24,0.383,0.731,1.175,0.926,1.441
	c0.195,0.263,0.711,1.148,1.054,1.148c0.345,0,1.052-0.214,0.71-0.839c-0.344-0.625-1.002-1.534-1.002-1.534
	s-1.302-2.23-0.419-1.563c0.88,0.675,1.199,1.104,1.397,1.321c0.197,0.216,0.907,1.466,1.517,1.081
	c0.611-0.38-0.026-0.961-0.246-1.247c-0.219-0.287-1.127-1.584-1.127-1.584s-0.978-0.891,0-0.456
	c0.983,0.43,2.009,1.508,2.303,1.485C119.391,39.858,119.687,39.402,119.34,39.043z M78.246,57.987
	c-0.159,1.503-2.12,7.468-2.12,7.468c0.272-1.696,0.825-9.585,0.825-9.585c0.074-1.268,1.412-0.615,1.412-0.615
	S78.402,56.486,78.246,57.987z"/>
<path fill="#565454" d="M138.809,39.857c0.472,1.283,0.673,4.036,0.401,5.252c-0.266,1.222-0.465,6.404-0.063,7.489
	c0.404,1.091,0.201,5.898,0.269,6.727c0.066,0.838-0.069,1.862-0.136,2.631c-0.071,0.762-0.071,3.453-0.071,3.453
	c0.071,1.28,3.299,3.392,3.299,3.392c-0.266,0.195-0.338,9.611-0.406,10.123c-0.066,0.509,0.473,4.548-0.266,6.084
	c-0.739,1.533-0.202,3.779-0.202,4.164c0,0.381,6.316-0.259,6.316-0.259s1.413-0.579,1.413,0c0,0.576,0.6,6.532,0.874,7.108
	c0.261,0.579,1.136,3.652,1.136,3.652s-0.199,2.435-0.199,3.133c0,0.704-0.269,3.975-0.269,3.975
	c-0.199,3.204-1.344,5.252-1.344,5.252c-0.738,1.728-0.941,2.237-0.738,2.752c0.202,0.512,0.603,2.753,0.202,3.847
	c-0.406,1.088,0.266,3.069,0.266,3.069c0.404,1.28,3.831,1.088,3.831,1.088c2.35-0.509,2.016-2.308,2.016-2.308
	c1.881,0.198,2.353,0.067,2.353,0.067c1.95-0.643,1.011-5.828,1.011-5.828s-0.271-2.563-0.271-3.456
	c0-0.899-0.739-3.264-0.807-3.588c-0.067-0.32-0.874-1.539-0.608-3.2c0.269-1.67-0.334-3.137,0.269-4.484
	c0.606-1.344,1.614-6.273,1.75-7.876c0.135-1.603,0.266-3.847,0.266-3.847c1.411,0,4.973,0.518,6.656-0.125
	c1.676-0.637,2.016-0.573,3.156-0.573c1.14,0,0.874-0.771,0.874-0.771s-0.938-6.084-1.209-7.495
	c-0.271-1.411-0.606-7.102-0.606-7.102s1.208-0.835,1.546-1.027c0.334-0.195,0.802-1.28,0.94-2.435
	c0.136-1.152-0.269-2.432-0.332-2.749c-0.072-0.323-0.541-1.603-0.338-1.99c0.204-0.378-0.874-2.496-1.416-3.456
	c-0.536-0.96-1.538-4.996-1.538-5.892c0-0.896-1.416-3.648-1.75-5.636c-0.338-1.981-0.067-11.528,0.268-12.933
	c0.337-1.411,0.406-4.1,0.406-4.1c0-2.691-3.564-4.548-3.564-4.548c-0.738-0.509-2.42-3.204-1.546-4.356
	c0.877-1.149,0.072-1.789,0.072-2.752c0-0.957-0.072-2.432,0.667-3.713c0.739-1.28,0.672-1.603,0.335-2.048
	c-0.335-0.451-0.335-1.088-0.335-1.088c0.335-2.438-2.285-6.532-2.285-6.532c-1.949-4.039-7.323-2.563-7.323-2.563
	c-5.243,1.347-6.046,12.165-6.249,14.789c-0.204,2.625-1.476,4.487-1.476,4.487c-5.442-0.323-5.644,1.853-5.644,1.853
	C137.67,27.305,138.339,38.579,138.809,39.857z M142.305,53.631c0.739-4.487,1.48-10.248,1.209-11.08c0,0,2.419,7.105,0.871,10.177
	c-1.543,3.078-1.075,6.919-1.075,6.919S141.567,58.111,142.305,53.631z"/>
<path fill="#565454" d="M27.472,28.618c0,0,0.042-1.688,0.252-2.009c0.214-0.324,0.975-3.38,0-4.47
	c-0.971-1.083-3.345-3.38-7.117-1.971c0,0-3.903,2.052-3.606,4.749c0,0-0.086,2.052-0.086,2.413c0,0.364-0.89,3.423,1.4,4.749
	c0,0,0,0.966-0.083,1.452c-0.087,0.483-2.079,1.488-2.249,2.335c-0.168,0.842-0.512,0.443-1.27,0.926
	c-0.765,0.478-6.784,3.539-7.506,5.791C6.482,44.84,3.035,55.241,3.714,58.018c0,0-1.514,7.185-0.706,8.108
	c0.805,0.928-0.045,3.059-0.045,3.059s0,2.659,0.255,2.659c0,0-0.297,4.463,0.383,5.351c0,0,0.762,2.133,2.331,2.133
	c0,0,1.528,1.288,2.207,0.602c0,0,0.507-0.157-0.553-0.885l-0.593-0.524c-0.172-0.116-0.214-0.885-0.214-1.126
	c0-0.24,0.086-1.042-0.085-1.288c-0.168-0.24,0.38-0.762,0.38-0.762s0.765,3.42,2.205,3.097c0,0,0.256-0.321-0.039-0.923
	c0,0-0.386-0.605-0.386-0.848c0-0.243,0-1.568-0.38-2.335c-0.38-0.762-0.846-1.809-1.187-2.092
	c-0.337-0.278-0.677-0.643-0.509-1.126c0.172-0.481,0.214-2.816,0.553-3.42c0.339-0.6,1.273-3.097,1.273-5.191
	c0,0,1.055,2.216,1.141,3.461c0.087,1.245-0.467,3.82-0.467,3.82s-1.267,1.857,0.175,3.628c0,0-0.216,0.64,0.59,0.845
	c0,0-0.371,4.088-0.462,5.753l-0.004,0.081c-0.085,1.612-0.678,7.686-0.257,8.774c0.427,1.085-0.635,1.892-0.716,2.454
	c-0.085,0.567-0.171,0.924,0,1.288c0.168,0.364,0.214,0.964-0.299,1.49c-0.512,0.524-1.062,3.701-0.932,4.905
	c0.125,1.212,0.171,3.342,0,4.19c-0.168,0.842-1.274,5.439-1.057,6.12c0.21,0.683-0.726,2.937-0.851,3.097
	c0,0-2.373,2.014-2.584,2.781l-1.274,0.764c0,0-2.373,1.445-1.353,2.454c0,0,0.89,1.649,5.172,0.038c0,0,2.501-1.404,3.642-1.404
	c1.145,0,2.245-0.324,2.377-1.047c0.121-0.724,0.083-1.854,0-2.014l0.722-1.614c0.123-0.195,0.677-1.404,0.677-2.009
	c0-0.599,0.716-5.955,0.848-6.398c0.125-0.443,1.488-2.899,1.4-3.739c-0.089-0.845,0.718-2.259,0.675-3.147
	c-0.04-0.885,0.724-6.115,1.014-6.636c0.301-0.526,1.403-4.711,1.828-5.315c0.421-0.602,2.159-5.556,2.159-6.196l0.593-0.564
	c0,0,0.635,2.816,1.228,4.587c0.596,1.771,0.299,2.613,0.726,4.665c0.424,2.054,0.167,4.597,0.76,5.237
	c0.593,0.64,1.023,1.847,1.107,3.82c0.087,1.976,1.014,7.403,1.228,8.01c0.211,0.605,0.98,5.123,1.063,5.925
	c0.085,0.804-0.297,2.818,0.253,3.418c0.555,0.605,0.679,1.25,0.765,1.452c0.085,0.203-0.381,2.049,0.295,2.894
	c0.681,0.845,1.952,1.169,2.417,2.054c0,0,2.082,2.616,6.491,0.807c0,0,0.803-0.888-0.975-2.659c0,0-0.846-1.369-1.398-1.73
	c-0.555-0.364-0.677-0.924-0.721-1.569c-0.043-0.645,0.166-1.731-0.426-2.214c-0.589-0.483,0.046-1.854,0.172-2.259
	c0.126-0.395,0.72-1.809,0.34-2.94c-0.386-1.123-0.252-2.252-0.042-2.73c0.21-0.486,1.014-1.045,0.21-2.702
	c-0.807-1.647-0.467-2.532-0.467-3.215c0-0.686-0.554-3.223-0.81-3.868c-0.254-0.645-1.141-4.786-0.889-6.52
	c0.254-1.733,0.254-9.576,0.254-9.778c0,0,0.937,0.362,1.274-0.121c0,0,1.016,0.362,1.189-0.324c0,0,0.291-0.926,0.463-1.283
	c0.172-0.362,0.506-1.649,0.382-2.178c-0.127-0.521-0.168-2.333-0.168-2.333s0.257,0.402,0.421-0.124
	c0.172-0.519,0.255-1.968,0.681-2.492c0.426-0.521,1.486-1.725,1.486-2.454c0-0.726,0.55-1.612,0.55-2.257
	c0-0.645,0.257-3.178,0.888-4.506c0.635-1.328,1.319-5.391,0.428-8.414c-0.892-3.016-1.311-4.946-1.866-5.993
	c-0.555-1.047-1.486-2.978-1.738-3.501c-0.257-0.519-2.46-3.941-5.681-5.351c0,0-1.906-0.724-2.166-1.05
	c-0.252-0.321-2.798-0.321-3.05-3.218C26.038,33.45,27.216,32.201,27.472,28.618z"/>
<path fill="#565454" d="M502.142,85.072c0,0,1.336,6.096,3.302,7.99c0,0,2.791,2.364,3.169,2.907c0,0,4.663,3.617,6.826,4.507
	c0,0,1.252,1.132,1.375,1.602c0,0-0.097,2.548-0.628,3.39c0,0-2.59,6.229-1.324,8.203l0.502,1.102l-0.021,0.002l-0.001,0.015
	c-0.127,0.149-0.863,1.073-1.126,1.823l-0.023-0.014c0,0-4.395-0.794-4.488,1.145l-0.049,0.317l-0.113,0.662
	c0.837,1.896,4.343,1.976,4.343,1.976c1.794,0.06,4.218,0.722,4.218,0.722c2.935,1.16,6.069,0.617,6.069,0.617
	c0.508-0.201,0.401-1.076,0.368-1.312l0.31-0.163c0,0,0.026-1.075-0.123-1.718c0,0-0.316-1.233-0.036-1.57
	c0,0,0.315-2.427,0.073-3.144c0.153-0.468,0.505-1.12,1.292-1.805c0,0,3.876-3.264,3.985-5.521l-0.028-0.168l0.008-0.008
	c0.123-1.473-1.655-2.455-1.655-2.455s0.962-1.235,0.579-2.382c0,0-2.561-2.27-2.84-2.486l-0.272-0.304l0.021-0.003l-0.028-0.067
	c-0.042-0.436-0.286-3.105-0.018-3.73c0,0,0.031-3.51-0.228-4.303l0.18-0.542c0,0,0.212-0.226,0.072-0.956
	c0,0-0.338-3.203-0.168-3.716c0,0,0.067-3.275-0.194-3.815c0,0-0.147-0.583,0.057-1.181c0,0,1.59-2.91,1.665-3.924
	c0.08-1.012,0.225-1.095,0.109-1.615c0,0,0.226-1.065,0.564-1.483c0,0,0.654-0.9,0.683-2.113c0,0,0.179-1.937,0.637-2.347
	c0,0,0.707-0.924,0.618-1.506c0,0,0.06-0.549,0.283-1.001c0,0,0.723-1.412,0.292-2.708l0.037-0.002c0,0,1.33-4.607,1.362-6.463
	c0,0,0.084-1.257,0.432-1.977l0.005,0.004l0.003-0.022l0.252-0.35c0,0,0.339-1.087,0.354-1.403c0,0,0.211-0.744,0.666-1.1
	c0,0,0.899-1.233,0.937-2.016c0,0,0.274-1.464,1.071-2.268c0,0,0.981-2.448,0.742-4.022l-0.235-1.725c0,0-0.283-1.374-0.131-2.035
	c0,0-0.031-3.745-0.421-5.212c0,0-0.499-1.706-0.351-2.396c0,0-0.12-5.255-2.524-7.747c0,0-2.941-3.362-4.495-4.132
	c0,0-1.741-0.664-2.215-1.121c0,0-1.051-0.922-1.647-1.271l-0.666-0.581l0-0.001c0,0,0.301-0.189,0.252-0.512
	c0,0-0.212-1.72-1.396-2.193c0.013-0.059,0.287-1.404,0.2-1.779c0,0-0.154-1.139-0.047-1.393l0.134-0.402l0.052-0.584l0.302-0.152
	c0,0,0.935-4.419-3.122-6.268c0,0-0.574-0.144-1.082-0.372c0,0-1.712-1.329-3.422-0.57l-0.574,0.321c0,0-4.419,1.496-4.163,4.033
	L510.6,8.971c0,0-0.082,2.571,0.609,4.464c-0.193,0.064-0.407,0.222-0.273,0.627c0,0,0.554,1.215,0.949,1.467l0.746,0.647
	l0.19-0.046c0.167,0.279,0.42,0.645,0.71,0.753l-0.424,0.358c0,0-0.195,0.308-0.489,0.413c0,0-2.078,1.608-2.137,2.246
	c0,0-5.153,2.274-5.26,4.499c0,0-0.163,1.009-0.264,1.265c0,0-0.627,3.856-0.142,4.778c0.477,0.92-0.337,3.898-0.337,3.898
	s-0.287,8.282,0.569,9.832c0,0,0.285,1.289,0.343,2.453c0,0-0.093,4.405-0.496,4.992c0,0-0.752,1.094-0.427,1.664
	c0,0,0.05,0.43-0.053,0.763l-0.022,0.071c-0.129,0.342-0.411,8.518,0.673,9.732c-0.276,1.121-1.615,6.448-1.576,7.748
	c0,0-0.932,3.808-1.481,4.856C501.467,77.497,501.258,83.667,502.142,85.072z M511.263,85.451c0.27-0.188,0.456-1.137,0.456-1.137
	c-0.039-0.32,0.183-1.294,0.183-1.294c0.929-1.148,1.313-3.769,1.313-3.769c-0.145-0.672,1.762-2.318,1.762-2.318
	c0.589-0.148,2.024-0.975,2.024-0.978c-0.112,0.489-0.125,3.128-0.08,3.387c0.045,0.265,0.285,0.629,0.236,1.117
	c-0.05,0.49-0.151,1.995-0.139,2.342c0.009,0.348,0.311,0.74-0.01,1.279c-0.313,0.535-0.04,2.784-0.04,2.784
	c0.172,0.582,0.2,1.805,0.2,1.805c-0.144,0.597-0.04,2.603-0.04,2.603c-0.57-0.084-2.702-2.219-2.702-2.219
	c-0.441-0.54-1.504-1.315-1.504-1.315c-0.423-0.252-0.584-0.551-0.584-0.551c-0.454-0.861-0.895-1.351-0.895-1.351
	C510.908,85.581,511.263,85.451,511.263,85.451z"/>
<path fill="#565454" d="M550.696,26.803c0,0,1.87-0.117,2.868-2.165c0,0-0.469-4.615,0.875-3.217c0,0,3.045-9.879,8.89-4.793
	c0,0,5.147,3.394,0.524,8.944c0,0-1.049,2.516-1.638,2.636c0,0-0.815,1.928-1.459,1.985c0,0,5.787,3.157,5.787,4.501
	c0,0,1.521,3.456,0.935,5.499c0,0,0.586,3.746,1.289,4.503c0,0,2.336,2.751,1.341,4.092c0,0,0.643,4.858-1.99,4.977
	c0,0-0.641,2.219-1.284,2.276c0,0,1.459,1.813,0.469,3.511c0,0-0.355,0.935,0.055,1.404c0,0,1.99,5.204,0.469,4.853
	c0,0,2.17,9.004,1.347,10.76c0,0,0.234,8.833,0.409,9.241c0,0-0.287,1.696,0,1.987c0,0,0.174,5.847-0.586,6.082
	c0,0,0.3,3.74,0.3,4.733c0,0,0.927,1.753,0.927,2.459c0,0,5.267,2.162,5.327,3.331c0,0,0.06,3.743-0.409,3.977
	c0,0-0.529,1.87,0,2.865c0,0,1.344,5.084,0.06,7.835c0,0-1.349,1.698-2.805,1.341c0,0-1.586,0.234-1.815-1.458l-0.758-1.693
	c0,0-0.526-3.334-1.003-3.568c0,0-1.69-1.578-1.69-1.93c0,0-1.115-2.287-1.755-2.342l-0.06,1.461v-0.229c0,0,0,1.75-0.701,2.104
	c0,0,0.294,0.99,0.174,1.461c0,0,3.506,3.331,3.506,3.975c0,0,2.11,0.878,2.052,1.93c0,0,0.526,1.636-0.294,1.816
	c0,0-7.543,0.404-8.478-0.526c0,0-0.995-0.352-1.81-0.06c0,0-4.443-0.292-4.383-0.94c0,0-0.18-1.169,0.114-1.63
	c0,0,0.464-1.052,0.06-1.409c0,0-0.995-1.987-0.297-2.805c0,0,0.469-2.862,0.938-3.274c0,0-0.938-1.693,0.349-3.394
	c0,0-0.175-4.792,0.18-5.376c0,0-0.589-6.9-0.242-7.311c0,0,0.063-1.349-0.401-1.933c0,0-2.985-2.977-2.162-4.73
	c0,0-0.643-1.87-1.646-2.576c0,0-3.092-4.152-3.04-5.261c0,0-3.506-5.264-2.805-7.014c0,0-2.805-4.743-1.818-7.431
	c0,0-0.813,0.177-0.99-0.466c0,0-0.052-1.873-1.115-2.805c0,0-2.042-7.725-1.224-10.648c0,0-1.347-0.872-1.87-1.459
	c0,0-4.446-2.339-3.975-3.863c0,0,4.793-14.737,6.835-16.078c0,0,2.514-4.214,6.321-3.92
	C548.592,27.038,549.061,26.043,550.696,26.803z"/>
<path fill="#565454" d="M468.292,22.383c0,0-0.643-5.264-2.047-5.558c0,0-3.274-3.154-7.366,0.586c0,0-3.975,3.86-0.763,8.301
	c0,0,0.701,1.581,0.3,2.107c0,0-5.035,3.102-5.324,3.746c0,0-4.334,1.11-4.334,2.396c0,0-3.855,4.504-3.509,6.488
	c0,0-1.11,7.079,0.466,8.189c0,0,2.633,1.987,4.097,1.696c0,0-1.698,4.678-1.464,5.556c0,0-0.529,2.107-0.875,2.81
	c0,0-0.875,4.558-0.052,4.793c0,0-0.823,3.975,0.226,4.154l1.756,0.584c0,0-1.289,9.061-1.11,9.416c0,0-0.18,14.555,0.763,15.375
	c0,0-0.18,5.087,0.521,5.501c0,0,2.691,7.655,2.104,8.942c0,0-2.399,6.376-1.401,6.668c0,0,0,2.282,1.521,2.282
	c0,0-2.399,1.868-2.745,1.987c0,0-3.454,0.82-2.165,3.042c0,0,5.725,0.935,7.074-0.763c0,0,2.104-0.466,2.745-0.232
	c0,0,2.815,0.172,2.815-0.646l0.172-1.459c0,0,3.034-6.087,1.401-7.955c0,0-0.294-8.186-0.701-8.832c0,0,0.174-6.957-0.12-7.369
	c0,0-0.232-1.167,0.174-1.636c0,0,1.235-6.902,0.88-9.942c0,0,4.383,10.705,4.444,13.333c0,0-0.234,2.688,0.286,3.217
	c0,0,0.12,7.191-0.286,8.89c0,0-0.94,7.48-0.062,7.832c0,0,1.292,3.157,2.287,3.157c0,0-0.706,3.863,1.456,3.628
	c0,0,5.324,0.237,5.267-1.404l-0.062-1.928c0,0,0.763-0.643,0.409-2.05c0,0,0.76-1.93,0-3.334c0,0-0.524-1.756-0.461-2.631
	c0,0-0.127-13.276-0.414-13.914c-0.289-0.646-0.289-2.164-0.114-3.102c0.174-0.935,2.339-17.6,1.049-19.472c0,0,0-8.713-1.107-9.942
	c0,0,1.456-0.406,1.456-1.052c0,0-0.117-2.045-0.524-2.511c0,0,0.641-4.564-0.641-6.379c0,0-0.589-5.376-0.469-6.608
	c0,0,1.81-2.339,1.81-5.905c0,0,2.399-10.466-5.67-11.81c0,0-1.284-2.868-2.224-2.868C467.763,27.759,468.584,23.146,468.292,22.383
	z"/>
<path fill="#565454" d="M337.858,30.51c0,0,0.201-1.87-0.089-2.657c0,0,1.67-3.152,1.076-5.712c0,0,0.097-4.431-2.068-6.504
	c0,0-4.037-2.456-5.613-1.766c0,0-3.644-0.393-4.329,2.558c0,0-2.071,6.798-0.591,9.455l1.479,4.428c0,0-4.829,2.956-5.225,4.332
	c0,0-2.071,4.529-0.982,6.204c0,0-1.576,11.617-0.396,13.094c0,0,0.104,4.634,0.69,4.634c0,0,1.185,5.019,1.479,5.41
	c0,0,0.789,3.152,0.49,3.941c0,0-0.49,3.74-0.099,4.134c0,0,0.495,1.972,0.987,1.972c0,0,0.982,1.378,1.479,1.378
	c0,0,0.979,0.987,1.373,0.49c0,0-0.885,3.449-0.193,5.517c0,0,0.885,3.446,0.396,3.933c0,0-0.497,4.238-0.3,4.829
	c0,0-1.865,7.681-1.081,8.762c0,0-0.297,14.375,0.492,15.852c0,0,0.292,3.743,0.094,4.337c0,0-0.685,2.165,0.297,2.264
	c0,0-0.591,1.378,0.198,1.378l2.462-0.196l0.589-1.182c0,0,1.675,0.391,1.774,1.276c0,0,5.915,0.3,6.694-0.094
	c0,0,1.677-0.398,0.987-1.281l-0.883-0.693l1.274-0.195c0,0,1.279,0.888,1.383,1.182c0,0,1.474,0.688,2.165,0.487
	c0,0,5.709-0.388,5.709-0.982c0,0,0.49-0.883-1.378-1.18c0,0-2.261-0.102-2.563-0.586c0,0,0.891-0.198,0.102-0.987
	c0,0-0.979-1.87-1.774-2.662c0,0-0.19-1.18-0.096-1.769c0,0,1.281,0.391-0.391-3.545c0,0,0.685-5.024-0.396-6.696
	c0,0-0.591-3.446-1.482-4.923c0,0-0.682-1.474-0.492-3.149c0,0,0.596-2.269,0.201-2.956c0,0,1.183-6.696,0.888-8.074
	c0,0,2.063,1.279,2.261,0.195c0,0,3.352,0.102,3.542-1.769c0,0,0.596-2.266,1.289-4.433c0,0,0.779-4.824,0.779-6.006
	c0,0,1.771-0.985,1.188-2.261c0,0-0.883-1.972-1.48-2.956l-2.261-4.629c0,0-1.776-3.935-2.167-4.821c0,0-1.281-6.795-1.185-8.473
	c0,0-0.198-1.865,0-2.852c0,0,0.987-2.956-0.198-4.923l-1.276-3.152c0,0-1.477-6.597-2.951-7.09
	C339.736,31.395,337.858,31.104,337.858,30.51z"/>
<path fill="#CCC8C8" d="M434.146,172.014c0,0,5.874,1.619,8.215,0.173c0,0,1.534-3.201-0.582-3.24l-0.711-0.52l-0.438-0.404
	c0,0-0.399-0.945-1.31-1.35c0,0-0.396-0.308-0.645-0.616l-0.504-0.347c0,0-0.197-0.425-0.744-0.425c0,0-0.458-0.79-1.342-0.848
	c0,0,3.197-0.289,3.177-1.081c-0.016-0.789,0.108-1.31,0.108-1.31l-0.109-0.541c-0.149-0.095,0.292-1.31,0.233-2.735
	c0,0,1.659,1.099,2.309,1.677c0.649,0.578,1.747,1.889,2.013,2.082c0.267,0.192,0.339,0.462,0.328,0.54
	c-0.011,0.076-1.533,0.539-1.468,0.983c0.065,0.444,0.301,1.543,0.424,1.696c0.126,0.155,1.682,0.771,1.455,0.445l-0.092-0.155
	c0,0,1.458,0.58,1.287-0.039c0,0,1.398,0.328,1.082-0.288c0,0,0.895,0.386,1.184-0.251c0,0,0.689-0.907,0.207-1.503
	c-0.486-0.6-0.862-1.157-1.127-1.35c-0.269-0.193-0.486-0.329-1.08-1.195c-0.59-0.867-3.919-4.165-4.351-4.473
	c-0.431-0.309-1.57-1.081-1.788-1.35c-0.219-0.271-1.919-1.696-3.941-0.945c0,0-1.396,0.578-1.494,0.772c0,0-0.767-0.54-0.839-1.079
	c-0.072-0.54,0.529-2.506,0.153-3.105c-0.373-0.596-0.439-1.174-0.555-1.676c-0.114-0.502-2.238-6.285-4.069-7.596
	c0,0-0.13,0.02-0.593-0.058c-0.466-0.077-0.621-0.136-1.351-0.269c-0.73-0.135-1.54-0.098-1.54-0.098s-2.981-1.966-3.665-2.718
	c-0.679-0.75-1.566-1.754-1.934-2.119c-0.371-0.366-0.895-1.061-1.041-1.466c-0.145-0.405-1.879-3.72-7.984-7.558
	c0,0-1.468-0.866-1.737-1.291c-0.271-0.424-0.599-0.694-0.964-0.964c-0.367-0.27-0.266-0.329-0.437-0.674
	c-0.172-0.347-0.307-0.964-1.093-1.35l-0.693-0.404c0,0-1.66-0.154-1.817-0.077c-0.156,0.077-0.107,0-0.107,0l-0.23,0.077
	c0,0-1.089-0.077-1.779-0.116c-0.686-0.038-0.922,0.482-0.84,0.81c0.085,0.328,0.968,0.925,1.705,0.887l0.444-0.039
	c0,0,0.528,0.288,1.12,0.617c0.595,0.328,0.735,0.501,1,0.695c0.266,0.192,0.724,0.847,1.407,1.195
	c0.683,0.347,1.425,1.176,1.851,1.832c0.419,0.655,1.287,2.719,3.288,4.647c1.998,1.927,1.771,2.505,1.817,2.562
	c0.048,0.059,0.364,0.81,1.399,2.179c1.034,1.369,2.78,3.027,2.743,3.161c-0.036,0.136-1.727,0.213-2.297,0.097
	c-0.567-0.116-1.819-1.119-2.458-1.774c-0.639-0.655-5.517-3.836-6.332-4.165c-0.813-0.327-4.674-2.256-5.122-2.582
	c-0.45-0.329-4.759-2.584-5.276-2.815c-0.516-0.232-3.393-1.888-3.777-2.275c-0.386-0.385-1.554-1.332-1.541-1.677
	c0.011-0.348,0.096-0.965,0.078-1.119c-0.013-0.154,0.156-0.347,0.403-0.404c0.247-0.056,3.095,0.347,1-0.887
	c0,0-1.206-0.77-2.956-0.808c-1.749-0.039-2.167,0.211-2.761,0.154c-0.597-0.058-2.556-0.136-2.506,0.289
	c0.051,0.423,0.436,1.213,0.776,1.406c0,0-0.351,0.289,0.542,0.849c0.889,0.558,2.582,1.387,3.282,1.753
	c0.699,0.367,2.304,1.812,2.762,2.102c0.451,0.288,4.654,4.395,10.215,6.342c0,0,1.788,0.81,2.129,1.098
	c0.343,0.289,1.56,1.293,1.755,1.447c0.199,0.154,0.611,0.483,0.705,0.598c0.094,0.116,3.618,6.227,5.408,7.537
	c0,0,0.558,0.463,0.73,0.81c0.17,0.347,2.813,1.987,3.546,3.027c0.735,1.041,3.611,2.429,3.227,3.084
	c-0.38,0.656-0.541,1.811-0.451,2.236c0.087,0.424,0.02,2.372-0.654,1.678c-0.673-0.696-4.37-3.683-5.516-4.241
	c-1.146-0.56-3.998-2.141-4.649-2.584c-0.652-0.444-2.515-1.619-3.437-1.947c-0.923-0.327-1.981-1.138-2.195-1.313
	c-0.214-0.173-0.77-0.499-2.242-0.827c-1.469-0.328-3.043-0.328-3.38-0.252c-0.341,0.077-0.842,0.27-1.177,0.174
	c-0.336-0.097-1.362-0.058-1.362-0.058s-2.212-0.116-2.447,0.136c0,0-1.601-0.039-1.168,0.135l0.383,0.155c0,0-0.806,0,0.174,0.172
	c0,0,1.841,0.288,2.988,0.443c1.151,0.156,1.722,0.367,2.95,0.348c1.228-0.02,2.89,0.097,3.235,0.251
	c0.344,0.154,1.8,0.868,2.373,1.215c0.571,0.345,3.305,2.641,3.992,3.084c0.69,0.443,2.89,2.121,3.578,2.429
	c0.689,0.308,3.303,2.004,3.756,2.563c0.452,0.558,3.718,5.63,8.418,6.247c0,0,1.167,0.54,1.245,0.77
	c0.078,0.231,4.108,5.301,5.722,6.208C431.375,171.434,432.358,172.244,434.146,172.014z"/>
<path fill="#CCC8C8" d="M227.139,160.813c0.601,1.022,12.574,9.648,13.077,10.086c0.51,0.439,9.576,2.449,10.367,2.596
	c0.788,0.146,2.538,0.657,2.538,0.657c0.585,0.439,2.515,1.352,2.515,1.352c0.517,0.365,0.793,1.536,0.793,1.536
	s-0.983,0.072-0.806,0.292c0.178,0.219-0.163,0.622-0.163,0.622c-0.466,0.987,0.918,1.133,0.918,1.133l0.628,1.241
	c4.397,3.583,9.381,2.669,9.381,2.669c5.93,0.146,2.518-3.143,2.519-3.326c0-0.183-0.889-1.097-1.171-1.353
	c-0.28-0.256-1.155-1.06-1.51-1.498c-0.356-0.439-3.045-1.644-3.593-1.863c-0.476-0.193-0.492-0.437-0.487-0.499l-0.001-0.002
	l0.002-0.011c0.402-0.146-0.131-0.805-0.368-1.097l-0.051-0.095l-0.003-0.013c-0.032-0.204,0.417-0.276,0.828-0.402
	c0.477-0.147,3.413-1.025,3.413-1.025c1.452-0.877-1.217-3.619-2.122-4.093c-0.904-0.476-1.286-1.865-2.19-2.705
	c-0.905-0.84-5.446-6.726-5.991-8.042c-0.546-1.314-1.332-1.461-1.882-1.681l-0.062-0.034l-0.02-0.015l-0.051-0.041l-0.026-0.022
	l-0.053-0.056l-0.02-0.022l-0.084-0.094l-0.01-0.012l-0.074-0.1l-0.027-0.034l-0.073-0.094l-0.023-0.038l-0.079-0.117l-0.015-0.021
	l-0.093-0.157c-0.611-0.976-1.342-2.471-1.564-2.871c-0.32-0.585-2.965-2.741-3.584-3.143c-0.631-0.404-13.399-10.381-14.153-11.038
	c-0.755-0.658-3.419-4.496-3.61-5.007c-0.191-0.512-0.958-1.097-0.753-1.39c0.211-0.292,2.97-1.022,2.97-1.022
	c4.214-0.403,2.718-1.426,2.718-1.426c-2.338-1.681-9.569-1.06-10.811-0.659c-1.235,0.402-2.169,0.072-2.5,0.036
	c-0.324-0.036-2.885-0.073-4.417,0.329c-1.537,0.402,1.148,1.974,1.447,2.157c0.297,0.184,0.547,0.585,0.547,0.585
	c-0.072,0.365,1.259,1.462,1.6,1.792c0.343,0.327,0.265,0.51,0.248,1.133c-0.019,0.62,4.517,5.482,4.517,5.482
	c0.774,1.242-2.436-1.718-2.702-2.047c-0.266-0.328-4.121-4.349-4.624-4.97c-0.504-0.622-2.739-2.742-2.573-2.998
	c0.171-0.256-0.976-1.206-0.976-1.206s-1.44-0.585,0.527-1.828c1.971-1.242,0.875-2.596,0.875-2.596
	c-4.703-2.045-10.033,0.293-9.841,0.806c0.195,0.511-0.687,0.621-0.687,0.621c-1.087,0.402,0.065,2.01,0.065,2.01
	c-0.556,0.146,0.012,0.658,0.367,0.913c0.362,0.257,0.574,1.352,0.811,1.828c0.236,0.475,10.762,12.463,11.773,12.975
	c1.011,0.512,0.453,1.023,1.876,2.23c1.424,1.206,6.746,7.127,6.746,7.127l-1.394,1.132c-1.341,0-0.385,2.925-0.314,3.472
	c0.067,0.549,0.638,2.998,0.786,3.181C226.587,160.228,227.139,160.813,227.139,160.813z"/>
<path fill="#CCC8C8" d="M291.889,124.582c-1.172,0.24-2.12,1.971-2.12,1.971c1.702,0.049,0.82,0.527,1.363,0.961
	c0.55,0.434,1.944,3.606,2.743,4.23c0.797,0.625,0.73,2.114,1.044,2.74c0.305,0.625,1.515,2.356,3.73,4.855
	c2.226,2.501,5.311,7.403,5.311,7.403c2.35,0.721,5.532,2.837,5.532,2.837s1.557,1.201,1.674,1.344
	c0.118,0.145,2.089,1.732,3.005,2.021c0.918,0.288,3.338,3.028,3.841,3.413c0.51,0.384,0.368,0.816,0.463,1.057
	c0.09,0.208-0.1,2.069-0.152,2.568c0.198,0.036,0.711,0.153,0.819,0.403l0.006,0.036l0.019,0.02c0.194,0.24-0.159,1.251-0.005,1.923
	c0.151,0.672-1.653,2.067-2.615,2.211c-0.966,0.144-1.412,0.192-1.611,0.432l-0.05,0.047l-0.029,0.016l-0.051,0.033l-0.048,0.021
	l-0.065,0.033l-0.051,0.023l-0.087,0.035l-0.051,0.022l-0.105,0.041l-0.05,0.019l-0.163,0.058l-0.039,0.013l-0.139,0.048
	l-0.058,0.019l-0.123,0.04l-0.057,0.019l-0.121,0.039l-0.055,0.018l-0.127,0.04l-0.038,0.01c-0.204,0.062-0.384,0.114-0.493,0.145
	l-0.001-0.002l-0.116,0.034c0.233,0.288,2.383,2.212,2.383,2.212c0.076-0.145,0.721,0.048,0.721,0.048
	c0.117,0.145,1.332,0.914,1.332,0.914c0.643,0.432,0.185,0.48,0.185,0.48c1.431,1.154,1.381,2.308,1.381,2.308
	c-0.202,1.683-5.619,0.914-5.619,0.914c-3.544-0.385-5-3.028-5-3.028c-0.43,0.191-0.956-0.818-0.956-0.818
	c-0.583-0.72,0.455-0.769,0.455-0.769c-0.312-0.385-0.172-0.818-0.172-0.818l-1.147-1.297c-0.133,0.01-0.406-0.013-0.754-0.055
	l-0.015-0.002l-0.045-0.007l-0.207-0.027l-0.079-0.011l-0.202-0.03L305,165.779l-0.28-0.044l-0.062-0.011l-0.228-0.036l-0.106-0.017
	l-0.198-0.036l-0.091-0.015l-0.277-0.048l-0.06-0.011l-0.217-0.039l-0.093-0.018l-0.178-0.031l-0.078-0.016l-0.227-0.044
	l-0.036-0.007l-0.166-0.034l-0.064-0.013l-0.119-0.024l-0.048-0.01l-0.121-0.027c-0.607-0.145-2.173-0.384-3.425-0.481
	c-1.256-0.098-4.693-1.204-5.299-1.587l-0.127-0.074l-0.009-0.008l-0.167-0.092l-0.026-0.015l-0.201-0.108l-0.04-0.022l-0.234-0.123
	l-0.036-0.018l-0.277-0.142l0-0.001c-0.201-0.105-0.423-0.216-0.643-0.328l-0.026-0.012l-0.328-0.168l-0.011-0.005
	c-0.927-0.463-1.842-0.916-2.123-1.054c-0.561-0.23-0.211-0.338,0.032-0.38l-0.31-0.143c-1.001-0.385-1.955-1.201-2.852-1.586
	c-0.901-0.385-3.147-1.827-3.341-2.067c-0.194-0.24-0.88-0.481-0.7-0.865c0.178-0.385,0.372-0.385,0.159-1.011
	c-0.208-0.625,0.215-3.124,0.212-3.364c0.004-0.241,0.009-1.202-0.245-1.876c-0.253-0.672,0.497-1.922,0.497-1.922
	c-0.936-0.434-5.162-4.567-5.337-4.903c-0.175-0.336-1.928-1.778-2.316-2.741c-0.39-0.961-1.66-1.922-2.535-2.403
	c-0.879-0.48-1.13-1.395-1.324-1.634c-0.195-0.24-3.081-2.114-4.156-2.836c-1.076-0.721-3.028-1.923-3.354-2.211
	c-0.332-0.288-3.235-3.509-4.43-4.134c-1.19-0.625-0.42-1.25-0.42-1.25h0.49c-0.312-0.385-2.072-1.106-2.072-1.106
	s-0.703-0.385-1.802-0.769c-1.09-0.384-0.306-0.866-0.306-0.866c2.113-0.529,6.085,0.385,6.085,0.385
	c0.491-0.241,1.702,0.288,1.702,0.288c1.098,0.385,1.85,1.682,1.85,1.682c0.592,0,1.581,1.347,1.816,1.875
	c0.234,0.529,2.611,2.259,3.273,2.836c0.666,0.577,2.46,1.587,3.397,2.259c0.936,0.674,6.185,4.134,7.335,5.193
	c1.152,1.058,3.357,2.932,4.389,3.364c1.036,0.432,5.192,3.268,5.621,3.798c0.428,0.529-0.025-2.452-0.55-3.221
	c-0.528-0.769-1.92-4.663-2.053-4.951c-0.137-0.288,0.3-1.442-0.5-2.308c-0.795-0.865-2.619-4.085-3.479-5.384
	c-0.855-1.298-2.024-2.499-2.024-2.499l0.297-0.241c0,0,0,0-0.452-0.192c-0.452-0.192-1.463-1.441-1.463-1.441
	c-1.07-0.962,1.593-0.817,2.377-0.817c0.784,0,1.286,0.383,3.152-0.096c1.859-0.483,5.914-0.192,5.914-0.192
	C295.852,123.668,293.064,124.342,291.889,124.582z M286.639,150.972c0,0-1.159,0.385-0.867,0.865
	c0.295,0.481-0.148,2.116,0.475,2.885c0.622,0.769,0.625,1.009,0.506,1.345c-0.12,0.337,0.289,0.722,0.599,0.866
	c0.311,0.145,3.775,1.635,4.532,2.211l0.453,0.271l0.086,0.041l0.094,0.042l0.091,0.039l0.173,0.068l0.095,0.034l0.09,0.031
	l0.094,0.03l0.089,0.027l0.089,0.024l0.081,0.023l0.084,0.02l0.085,0.019l0.068,0.013l0.094,0.016l0.044,0.006l0.114,0.01h0.03
	l0.053-0.003l0.028-0.006l0.037-0.011l0.012-0.011l0.009-0.02l0.002-0.015l-0.013-0.033l-0.015-0.018l-0.075-0.066
	c0,0-2.639-4.23-2.811-4.808L291,154.718l-0.023-0.04l-0.086-0.137l-0.017-0.02l-0.13-0.161l-0.039-0.048l-0.122-0.131l-0.033-0.037
	l-0.168-0.162l-0.056-0.057l-0.119-0.112l-0.067-0.06l-0.145-0.133l-0.195-0.181l-0.02-0.016c-0.178-0.166-0.338-0.314-0.432-0.431
	C288.999,152.559,286.756,151.115,286.639,150.972z M305.534,150.492c0,0,0.291,0.962,0.009,1.345
	c-0.176,0.249,0.009,0.639,0.326,1.091c0.075,0.11,0.16,0.223,0.255,0.34l0.069,0.088c0.09,0.117,0.186,0.236,0.284,0.357
	c0.622,0.768,2.706,2.499,3.489,3.22c0.778,0.721,2.572,2.451,3.08,2.596c0,0-0.389-0.28-0.053-0.474l0-0.001l0.118-0.054
	l0.352-0.047c0,0,0.373-1.347,0.652-1.731c0.274-0.384-0.502-1.105-0.502-1.105s-2.574-2.211-2.807-2.981c0,0-1.52-1.635-2.44-1.922
	C307.449,150.923,306.138,150.875,305.534,150.492z"/>
<path fill="#CCC8C8" d="M153.231,163.929c-0.196,0.179-1.588,0.756-1.68,0.825c-0.088,0.072-1.073,0.732-1.468,0.789
	c-0.393,0.06-0.893,0.225-0.953,0.274c-0.064,0.045-1.284,0.835-1.735,0.883c-0.454,0.047,0.707,1.237,0.707,1.237
	s1.336,1.107-0.916,0.835c0,0-5.749-0.196-6.041-0.39c-0.293-0.196-1.116-0.715-3.531-0.522c-2.412,0.196-7.311,0.031-9.011-0.669
	c0,0-2.921-0.086-2.635,0.643c0.29,0.729,1.339,2.626,0.451,3.181c-0.885,0.555-0.888,0.701-0.888,0.701s-1.28,1.488-6.245,0.524
	c0,0-4.313-0.757-4.927-2.334c-0.607-1.576-0.715-1.633-0.037-2.218c0.682-0.583,0.606-0.906,0.629-1.021
	c0.027-0.118,1.06-0.788,1.733-0.934c0,0-2.457-0.789-3.146-0.963c-0.686-0.176-9.185-2.13-12.493-5.312
	c0,0-1.703-1.663-2.601-2.392c-0.895-0.73-2.33-1.605-1.606-2.132c0.73-0.522,1.322-0.464,1.322-0.464s-1.67-1.839-2.143-2.423
	c-0.472-0.583-1.873-2.012-2.508-2.947c-0.634-0.932-1.604-2.13-1.874-2.538c-0.267-0.409-2.879-1.838-3.732-2.891
	c0,0-2.643-0.934-3.775-1.663c-1.136-0.729-8.405-4.61-9.426-6.246c-1.019-1.632-0.759-1.165-1.696-1.719
	c-0.931-0.555-3.051-1.518-3.855-2.511c-0.803-0.991-1.539-1.605-1.796-2.218c-0.252-0.614-0.047-0.057-0.047-0.057
	s-1.389-0.292-2-0.527c-0.617-0.234-3.563-0.876-3.982-1.021c-0.409-0.142-6.652-0.789-7.614-2.19l-0.052-0.086
	c-0.758-1.461,1.662-2.365,6.226-1.604c0,0,3.594,0.844,5.7,1.05c2.108,0.203,3.602,0.554,3.766,0.757
	c0.167,0.206,1.073-0.175,1.808,0.206c0.731,0.379,3.513,2.915,4.984,3.91c1.47,0.991,3.226,2.187,4.551,2.772
	c1.322,0.585,7.689,4.551,9.167,5.105c1.482,0.555,3.277,1.576,3.626,1.781c0.346,0.205,6.112,2.979,7.957,2.483
	c1.84-0.499,1.005-1.08,2.067-1.869c1.057-0.787,1.896-1.926,2.101-2.276c0.197-0.35,1.041-0.583,1.711-1.256
	c0.67-0.672-0.314-1.138-0.723-2.392c-0.412-1.256-1.356-3.094-1.452-3.589c-0.099-0.495,0.042-0.321-0.889-1.546
	c-0.93-1.227-2.809-2.717-0.697-3.181c2.112-0.467,2.828-0.409,2.828-0.409s-1.782-0.174-3.038-0.527c0,0-1.268-0.29-1.463-0.61
	c0,0-1.422-0.408,3.155-0.819c0,0,1.72,0.177,2.251-0.29c0.534-0.468,5.111,0.173,5.699,0.815c0.582,0.643,0.374,0.761,0.374,0.761
	l0.012,0.991c0,0,0.193,2.187,0.92,3.385c0.726,1.196,1.495,2.744,1.547,3.182c0.05,0.436,2.2,3.239,1.868,3.734
	c-0.323,0.495-1.403,2.685-1.012,3.617c0.393,0.934,1.899,4.816,2.907,5.312c1.01,0.498,4.14,2.043,5.831,4.057
	c1.695,2.012,0.556,1.809,1.394,2.772c0.841,0.962,3.272,4.786,3.199,5.894c-0.076,1.108,1.27,3.443,2.1,3.795
	c0.828,0.349,6.716,1.777,7.339,2.098c0.623,0.322,3.972,0.935,4.63,0.847c0,0,0.897,0.059,0.354-0.611c0,0-0.423-0.591,0.008-0.814
	c0.43-0.225,0.58-0.402,0.684-0.577c0.101-0.177,0.275-0.719,0.275-0.719s0.919-0.166,1.239,0.624c0,0-0.337,0.4-0.393,0.541
	c-0.061,0.141-0.005,0.872,0.58,0.686c0,0,0.294-0.178,0.392-0.367c0.087-0.188,0.263-0.577,0.353-0.707
	c0.091-0.129,0.254-0.564,0.597-0.564c0.345,0,1.137,0.105,1.043,0.412c-0.095,0.307-0.391,0.753-0.391,0.753
	s-0.416,1.095,0.202,0.768c0.612-0.331,0.76-0.542,0.872-0.649c0.111-0.106,0.323-0.72,1.088-0.531
	c0.762,0.187,0.356,0.472,0.25,0.613c-0.105,0.141-0.497,0.778-0.497,0.778s-0.624,0.437,0.181,0.224
	c0.813-0.211,1.41-0.741,1.712-0.729C152.958,163.529,153.434,163.753,153.231,163.929z M104.603,154.626
	c-0.757-0.738-5.09-3.667-5.09-3.667c0.946,0.833,4.637,4.707,4.637,4.707c0.579,0.623,1.656,0.302,1.656,0.302
	S105.356,155.363,104.603,154.626z"/>
<path fill="#CCC8C8" d="M172.376,163.53c-0.039-0.63-0.932-1.982-1.687-2.579c-0.752-0.6-3.012-3.145-3.041-3.678
	c-0.03-0.536-2.145-2.896-2.406-3.304c-0.268-0.412-0.809-0.915-1.182-1.292c-0.374-0.374-1.444-1.696-1.444-1.696
	c-0.439-0.629,1.95-1.666,1.95-1.666c-0.344-0.096-4.16-4.72-4.431-4.971c-0.268-0.25-1.335-2.233-2.686-2.988
	c-1.349-0.753-1.705-1.856-1.858-2.045c-0.152-0.187,6.419,0.127,6.419,0.127s1.643,0.284,1.413,0
	c-0.229-0.283-1.998-3.208-1.952-3.491c0.031-0.284-0.317-1.793-0.317-1.793s-1.167-1.196-1.445-1.539
	c-0.28-0.346-1.85-1.952-1.85-1.952c-1.473-1.573-3.433-2.579-3.433-2.579c-1.425-0.849-1.831-1.099-1.832-1.352
	c-0.002-0.252-0.492-1.352-1.328-1.889c-0.839-0.534-0.954-1.507-0.954-1.507c-0.105-0.629,3.399-0.534,3.399-0.534
	c2.552,0.25,2.934,1.133,2.934,1.133c1.802-0.097,2.326-0.033,2.326-0.033c2.206,0.316,3.328,2.862,3.328,2.862
	s0.748,1.259,1.103,1.697c0.358,0.442,0.559,1.603,0.62,1.762c0.06,0.157-0.262,0.756,0.665,1.572
	c0.933,0.82,0.914,1.54,2.052,2.202c1.141,0.66,4.108,3.081,4.882,3.868c0.772,0.787,1.796,1.889,1.796,1.889
	c1.411,0,4.767-0.254,6.705,0.061c1.929,0.313,2.244,0.281,3.384,0.281c1.14,0,1.181,0.379,1.181,0.379s1.481,2.988,1.771,3.681
	c0.29,0.693,2.218,3.488,2.218,3.488s1.54,0.41,1.954,0.504c0.411,0.096,1.311,0.629,1.908,1.196
	c0.594,0.566,0.698,1.194,0.761,1.35c0.056,0.159,0.097,0.787,0.453,0.977c0.354,0.186,0.119,1.226-0.041,1.697
	c-0.154,0.471,0.448,2.453,0.805,2.893c0.356,0.44,0.035,1.792,0.492,2.768c0.449,0.973,4.517,5.661,5.411,6.351
	c0.898,0.693,2.036,2.013,2.036,2.013c1.07,1.322-1.755,2.233-1.755,2.233c-0.535,0.25-1.146,1.573,0.186,2.139
	c1.334,0.564,0.784,0.879,1.167,1.352c0.381,0.47,0.895,1.194,2.144,1.823c1.248,0.629,1.309,0.787,1.15,1.006
	c-0.156,0.221,0.097,0.534,0.097,0.534c1.305,1.197,0.312,3.208,0.312,3.208c-0.343,1.983-6.304,1.259-6.304,1.259
	c-5.779-0.662-10.884-5.974-12.13-7.263c-1.247-1.289-3.26-2.203-3.26-2.203c-5.313,0.159-6.381-0.91-6.381-0.91
	C176.229,169.694,172.414,164.157,172.376,163.53z M170.394,156.765c2.524,2.203,5.556,5.032,5.616,5.441
	c0,0-0.407-3.489-3.176-4.998c-2.767-1.512-3.826-3.398-3.826-3.398S167.875,154.565,170.394,156.765z"/>
<path fill="#CCC8C8" d="M65.509,169.049c0,0,0.713,0.829,1.051,0.986c0.343,0.159,2.319,1.66,1.778,2.195
	c-0.541,0.532-2,1.66-6.333,0.968c0,0-4.718-1.008-5.495-2.332c0,0-0.902-1.008-1.046-1.185c-0.145-0.179-2.252-1.681-0.488-2.332
	c0,0-0.384-0.475-0.661-0.713c-0.279-0.237-2.671-0.73-3.178-1.147c-0.503-0.414-0.688-0.217-1.638-0.455
	c-0.955-0.235-8.191-1.738-9.809-2.844c-1.622-1.108-9.205-6.216-9.631-7.58c0,0-4.372-3.529-3.93-3.982
	c0.435-0.456-1.262-1.502-1.262-1.502s-1.057-1.306-0.802-1.306c0,0-2.072-2.192-1.745-2.628c0,0-0.086-1.047,1.483-1.047
	c0,0,1.016-0.632,1.968-0.296c0,0,0.57,0.077-0.201,0.435l-0.385,0.257c-0.126,0.057,0.138,0.435,0.234,0.553
	c0.096,0.118,0.5,0.512,0.427,0.632c-0.073,0.118,0.682,0.374,0.682,0.374s-0.595-1.68,0.973-1.521c0,0,0.383,0.158,0.328,0.453
	c0,0-0.145,0.297-0.049,0.416c0.097,0.119,0.624,0.77,0.549,1.147c-0.077,0.374-0.127,0.888-0.354,1.027
	c-0.226,0.137-0.421,0.316-0.061,0.553c0.363,0.236,1.333,1.383,1.913,1.68c0.577,0.295,2.504,1.521,3.337,2.549
	c0,0,0.174-1.088-0.235-1.7c-0.408-0.611-1.986-1.876-1.986-1.876s-2.006-0.912-1.268-1.782c0,0-0.471-0.314,0.254-0.415
	c0,0-1.997-2.008-2.75-2.825l-0.036-0.04c-0.726-0.791-3.734-3.774-3.746-4.309c-0.004-0.533-1.388-0.929-1.692-1.205
	c-0.31-0.278-0.538-0.454-0.512-0.632c0.023-0.179-0.17-0.473-0.891-0.732c-0.72-0.257-2.534-1.818-2.883-2.409
	c-0.357-0.595-1.158-1.641-1.666-2.057c-0.503-0.414-3.437-2.671-3.491-3.005c-0.062-0.335-1.894-1.442-2.083-1.521
	c0,0-3.174-0.989-3.69-1.365l-1.578-0.375c0,0-2.947-0.709-2.329-1.205c0,0,0.234-0.81,5.157-0.019c0,0,3.059,0.69,4.2,0.69
	c1.145,0,2.374,0.159,2.793,0.514c0.409,0.355,0.821,0.911,0.801,0.989l1.364,0.793c0.2,0.096,1.235,0.69,1.476,0.986
	c0.238,0.294,3.084,2.925,3.392,3.142c0.301,0.217,2.64,1.424,2.887,1.836c0.247,0.415,1.617,1.11,1.927,1.546
	c0.312,0.435,3.155,3.003,3.653,3.259c0.51,0.258,3.276,2.313,3.942,2.61c0.661,0.296,4.369,2.728,4.623,3.043l0.818,0.277
	c0,0-0.485-1.383-0.596-2.252c-0.108-0.87-0.741-1.283-1.129-2.291c-0.393-1.009-1.661-2.257-1.322-2.572
	c0.339-0.314,0.289-0.907-0.412-1.876c-0.698-0.97-1.929-3.635-1.957-3.933c-0.029-0.297-1.057-2.516-1.294-2.91
	c-0.235-0.395-1.418-1.384-1.106-1.678c0.315-0.297,0.182-0.614,0.188-0.713c0.004-0.099-1.195-1.006-0.856-1.421
	c0.344-0.415,1.487-0.574,1.6-1.009c0,0,1.042-1.285,6.17-0.396c0,0,1.156,0.436,0.082,1.306c0,0-0.302,0.672-0.71,0.85
	c-0.411,0.179-0.31,0.454-0.097,0.77c0.213,0.317,0.854,0.85,0.454,1.087c-0.397,0.237,0.783,0.911,1.07,1.11
	c0.283,0.194,1.439,0.888,1.509,1.444c0.061,0.552,0.644,1.106,1.044,1.341c0.403,0.239,1.43,0.513,1.285,1.327
	c-0.152,0.809,0.54,1.244,0.812,1.579c0.273,0.337,0.728,1.583,0.729,1.9c0.002,0.317,0.763,2.351,1.704,3.202
	c0.943,0.851,4.062,4.703,4.143,4.802c0,0,0.793-0.178,1.322,0.06c0,0,0.872-0.178,1.318,0.159c0,0,0.659,0.455,0.973,0.63
	c0.316,0.178,1.162,0.81,1.248,1.07c0.081,0.256,0.759,1.146,0.759,1.146s0.097-0.198,0.47,0.061
	c0.378,0.255,1.038,0.967,1.672,1.224c0.634,0.256,2.172,0.847,2.462,1.205c0.289,0.357,1.191,0.791,1.448,1.108
	s1.521,1.561,2.68,2.213c1.163,0.652,3.463,2.648,3.774,4.132c0.307,1.481,0.656,2.429,0.517,2.943
	c-0.139,0.514-0.302,1.462-0.346,1.72c-0.05,0.255-0.893,1.936-3.553,2.628c0,0-1.619,0.355-1.748,0.516
	c-0.124,0.158-2.67,0.158-1.77,1.58C62.153,166.676,63.827,167.289,65.509,169.049z"/>
<path fill="#CCC8C8" d="M517.728,141.325c0,0-1.089-2.994,0.124-3.924c0,0,1.851-1.161,2.013-1.427c0,0,3.224-1.776,5.034-2.213
	c0,0,0.802-0.556,0.738-0.787c0,0-1.11-1.251-1.976-1.665c0,0-5.067-3.059-4.586-4.028l0.064-0.541l-0.022-0.001l-0.007-0.008
	c-0.187-0.073-1.29-0.527-1.851-0.895l-0.017,0.007c0,0-4.079,0.39-4.944-0.562l-0.175-0.156l-0.376-0.325
	c0.083-0.931,3.557-0.97,3.557-0.97c1.77-0.03,3.931-0.355,3.931-0.355c2.474-0.57,5.824-0.303,5.824-0.303
	c0.588,0.099,0.829,0.528,0.89,0.644l0.375,0.08c0,0,0.453,0.528,0.56,0.844c0,0,0.174,0.605,0.588,0.771
	c0,0,1.28,1.192,1.324,1.544c0.339,0.23,0.951,0.55,2.01,0.886c0,0,5.174,1.603,6.18,2.711l0.038,0.083l0.011,0.004
	c0.709,0.723-0.678,1.206-0.678,1.206s1.453,0.607,1.526,1.17c0,0-1.658,1.115-1.851,1.221l-0.151,0.149l0.022,0.001l-0.002,0.033
	c0.132,0.214,0.949,1.525,1.465,1.832c0,0,1.427,1.724,1.483,2.113l0.395,0.266c0,0,0.301,0.111,0.452,0.469
	c0,0,0.935,1.573,1.31,1.825c0,0,1.369,1.608,1.323,1.874c0,0,0.085,0.286,0.527,0.58c0,0,2.747,1.429,3.225,1.927
	c0.482,0.497,0.66,0.538,0.751,0.793c0,0,0.65,0.523,1.154,0.728c0,0,1.011,0.442,1.524,1.038c0,0,0.95,0.951,1.571,1.153
	c0,0,1.074,0.454,1.217,0.74c0,0,0.278,0.269,0.681,0.491c0,0,1.284,0.694,1.369,1.33l0.038,0.001c0,0,3.163,2.263,3.932,3.174
	c0,0,0.584,0.617,1.218,0.971l0.004-0.002l0.012,0.011l0.391,0.172c0,0,0.771,0.534,0.912,0.689c0,0,0.506,0.365,1.103,0.54
	c0,0,1.39,0.606,1.739,0.99c0,0,0.856,0.719,1.973,1.114c0,0,1.955,1.202,2.341,1.975l0.451,0.847c0,0,0.263,0.675,0.678,0.999
	c0,0,1.459,1.839,1.651,2.56c0,0,0.179,0.838,0.602,1.177c0,0,1.97,2.581,0.557,3.804c0,0-1.604,1.651-2.851,2.029
	c0,0-1.477,0.326-1.769,0.551c0,0-0.684,0.453-1.141,0.624l-0.435,0.285l0,0.001c0,0,0.376,0.093,0.455,0.251
	c0,0,0.472,0.845-0.524,1.077c0.037,0.029,0.845,0.689,0.908,0.874c0,0,0.299,0.559,0.507,0.684l0.294,0.197l0.284,0.287
	l0.363,0.075c0,0,2.693,2.17-0.629,3.078c0,0-0.517,0.071-0.935,0.183c0,0-1.183,0.653-3.196,0.28l-0.701-0.157
	c0,0-5.014-0.735-5.767-1.98l-0.368-0.34c0,0-1.105-1.263-1.166-2.192c-0.219-0.031-0.495-0.109-0.522-0.308
	c0,0,0.071-0.597,0.366-0.72l0.488-0.318l0.208,0.022c0.056-0.137,0.163-0.317,0.41-0.37l-0.566-0.176c0,0-0.317-0.151-0.653-0.203
	c0,0-2.717-0.79-3.031-1.103c0,0-6.057-1.117-7.049-2.209c0,0-0.564-0.495-0.767-0.621c0,0-2.16-1.894-2.042-2.347
	c0.111-0.452-1.887-1.914-1.887-1.914s-3.581-4.067-3.341-4.829c0,0-0.228-0.633-0.632-1.205c0,0-1.844-2.163-2.481-2.451
	c0,0-1.187-0.537-1.089-0.817c0,0-0.121-0.211-0.356-0.375l-0.05-0.035c-0.265-0.168-3.798-4.183-3.197-4.779
	c-0.721-0.551-4.179-3.167-4.657-3.805c0,0-2.446-1.87-3.412-2.385C520.065,145.045,517.402,142.015,517.728,141.325z
	 M526.699,141.139c0.344,0.092,0.909,0.558,0.909,0.558c0.088,0.157,0.697,0.635,0.697,0.635c1.385,0.564,2.812,1.851,2.812,1.851
	c0.122,0.33,2.684,1.138,2.684,1.138c0.647,0.072,2.412,0.479,2.413,0.48c-0.307-0.24-1.369-1.536-1.427-1.663
	c-0.061-0.13,0.035-0.309-0.209-0.549c-0.245-0.241-0.945-0.98-1.07-1.15c-0.129-0.171,0.017-0.363-0.518-0.628
	c-0.525-0.263-1.147-1.367-1.147-1.367c-0.059-0.286-0.518-0.886-0.518-0.886c-0.381-0.293-1.075-1.278-1.075-1.278
	c-0.536,0.041-1.819,1.09-1.819,1.09c-0.226,0.265-0.981,0.646-0.981,0.646c-0.323,0.124-0.364,0.271-0.364,0.271
	c-0.111,0.423-0.357,0.663-0.357,0.663C526.291,141.075,526.699,141.139,526.699,141.139z"/>
<path fill="#CCC8C8" d="M589.454,169.94c0,0,1.917,0.058,3.729,1.063c0,0,1.367,2.266,2.154,1.58c0,0,6.974,4.852,10.796,2.354
	c0,0,3.797-1.667-3.033-4.392c0,0-2.05-1.236-2.686-1.294c0,0-1.582-0.947-2.248-0.975c0,0,4.532-1.55,3.998-2.21
	c0,0,0.147-1.697-1.252-2.7c0,0-0.904-1.839-0.502-2.211c0,0,1.243-1.351-0.286-2.01c0,0-1.288-2.386-3.969-2.444
	c0,0-1.523-1.09-2.189-1.118c0,0,0.738-0.89-0.927-1.724c0,0-0.726-0.459-0.504-0.689c0,0-0.08-2.556-1.461-2.383
	c0,0-1.411-4.422-2.932-5.284c0,0-3.278-4.338-3.266-4.538c0,0-0.961-0.833-0.79-0.976c0,0-2.151-2.872-3.005-2.987
	c0,0-1.188-1.837-1.583-2.324c0,0,0.23-0.861-0.05-1.208c0,0,4.407-1.062,4.002-1.636c0,0-1.429-1.838-1.991-1.953
	c0,0-1.272-0.918-1.139-1.407c0,0-0.678-2.497-3.056-3.848c0,0-2.025-0.834-3.339-0.659c0,0-1.679-0.115-1.235,0.716l-0.085,0.831
	c0,0,0.8,1.637,0.416,1.752c0,0-1.063,0.775-0.923,0.948c0,0-0.205,1.123-0.824,1.15l-0.641-0.718l0.091,0.113
	c0,0-0.696-0.859-1.537-1.033c0,0-0.099-0.486-0.407-0.718c0,0,2.181-1.636,1.925-1.952c0,0,1.761-0.431,1.285-0.948
	c0,0-0.125-0.803-1.016-0.892c0,0-7.704-0.198-8.269,0.258c0,0-0.855,0.173-1.786,0.029c0,0-4.327,0.143-4.009,0.462
	c0,0,0.285,0.574,0.763,0.801c0,0,0.882,0.517,0.62,0.692c0,0-0.205,0.976,0.819,1.378c0,0,1.607,1.406,2.239,1.608
	c0,0-0.264,0.831,1.699,1.667c0,0,1.731,2.353,2.318,2.64c0,0,2.155,3.388,2.665,3.59c0,0,0.599,0.663,0.368,0.949
	c0,0-1.801,1.462-0.281,2.323c0,0,0.1,0.918-0.622,1.265c0,0-1.441,2.039-0.947,2.584c0,0-1.413,2.585-0.016,3.445
	c0,0-0.919,2.329,1.137,3.649c0,0-0.883-0.087-0.804,0.229c0,0,0.693,0.92,0.001,1.378c0,0,1.03,3.794,3.01,5.229
	c0,0-1,0.428-1.29,0.716c0,0-3.516,1.149-2.439,1.897c0,0,10.653,7.237,13.229,7.896c0,0,4.19,2.07,7.88,1.925
	C587.256,169.825,588.121,170.314,589.454,169.94z"/>
<path fill="#CCC8C8" d="M508.808,172.111c0,0,1.45,2.585,0.163,2.73c0,0-2.02,1.549-7.599-0.288c0,0-5.51-1.896-4.064-4.077
	c0,0,0.072-0.776-0.538-1.035c0,0-6.268-1.523-6.813-1.839c0,0-4.775-0.545-5.287-1.177c0,0-5.646-2.212-6.089-3.186
	c0,0-3.925-3.477-2.79-4.021c0,0,1.843-0.976,3.423-0.833c0,0-3.559-2.297-3.673-2.728c0,0-1.367-1.035-1.993-1.38
	c0,0-2.688-2.238-1.958-2.354c0,0-2.404-1.952-1.426-2.04l1.523-0.287c0,0-4.893-4.45-4.854-4.624c0,0-5.968-7.148-5.351-7.551
	c0,0-2.203-2.498-1.667-2.701c0,0-0.354-3.759-1.451-4.391c0,0-4.935-3.131-4.053-3.275c0,0-0.907-1.121,0.614-1.121
	c0,0-3.142-0.917-3.536-0.976c0,0-3.78-0.403-3.374-1.494c0,0,5.353-0.459,7.378,0.375c0,0,2.29,0.229,2.837,0.114
	c0,0,2.747-0.084,3.072,0.317l0.752,0.716c0,0,5.455,2.989,4.565,3.906c0,0,2.961,4.02,2.812,4.337c0,0,2.941,3.417,2.811,3.619
	c0,0,0.232,0.573,0.825,0.803c0,0,3.98,3.39,4.834,4.882c0,0,0.126-5.257-0.859-6.548c0,0-1.303-1.32-0.993-1.58
	c0,0-2.74-3.532-3.822-4.366c0,0-3.915-3.673-3.177-3.846c0,0,0.036-1.55,1.031-1.55c0,0-2.242-1.897,0.013-1.782
	c0,0,5.23-0.116,5.825,0.689l0.704,0.947c0,0,1.019,0.316,1.224,1.007c0,0,1.528,0.948,1.326,1.637c0,0,0.175,0.862,0.585,1.292
	c0,0,5.152,6.52,5.119,6.833c-0.032,0.317,0.572,1.063,1.119,1.523c0.546,0.459,9.338,8.643,8.793,9.563
	c0,0,3.465,4.279,2.847,4.882c0,0,1.618,0.199,1.874,0.517c0,0,0.696,1.004,0.475,1.233c0,0,2.455,2.241,1.896,3.133
	c0,0,1.549,2.64,2.159,3.245c0,0,2.74,1.149,4.158,2.9c0,0,6.561,5.14-0.974,5.8c0,0-0.144,1.408-1.084,1.408
	C506.141,169.471,508.796,171.736,508.808,172.111z"/>
<path fill="#CCC8C8" d="M375.142,168.12c0,0,0.944,0.918,0.968,1.305c0,0,2.923,1.548,3.347,2.805c0,0,1.859,2.176,0.519,3.194
	c0,0-3.061,1.206-4.911,0.867c0,0-3.488,0.193-5.346-1.256c0,0-4.774-3.338-4.351-4.643l-0.281-2.174c0,0-6.005-1.452-6.948-2.127
	c0,0-3.872-2.224-3.449-3.047c0,0-6.195-5.705-5.603-6.43c0,0-1.738-2.276-1.152-2.276c0,0-0.811-2.465-0.672-2.657
	c0,0-0.464-1.548-1.078-1.935c0,0-1.977-1.837-1.743-2.03c0,0-0.289-0.968,0.203-0.968c0,0,0.434-0.677,0.932-0.677
	c0,0,0.587-0.485,1.178-0.24c0,0-2.257-1.694-2.386-2.709c0,0-0.485-1.692-1.168-1.931c0,0-2.183-2.081-2.22-2.372
	c0,0-4.919-3.772-4.565-4.303c0,0-6.013-7.059-5.812-7.785c0,0-1.197-1.838-1.631-2.13c0,0-1.546-1.063-0.603-1.112
	c0,0-1.139-0.677-0.35-0.677l2.539,0.096l1.059,0.581c0,0,1.519-0.192,1.266-0.627c0,0,5.796-0.147,6.731,0.046
	c0,0,1.836,0.196,1.497,0.629l-0.608,0.34l1.352,0.096c0,0,0.926-0.436,0.913-0.581c0,0,1.201-0.338,1.971-0.239
	c0,0,5.864,0.191,6.1,0.482c0,0,0.841,0.434-0.909,0.579c0,0-2.221,0.05-2.33,0.288c0,0,0.97,0.097,0.494,0.485
	c0,0-0.236,0.918-0.715,1.307c0,0,0.279,0.579,0.607,0.869c0,0,1.126-0.192,1.019,1.741c0,0,2.683,2.467,2.267,3.289
	c0,0,0.779,1.692,0.476,2.418c0,0-0.096,0.724,0.76,1.546c0,0,1.499,1.114,1.376,1.452c0,0,3.846,3.289,4.099,3.965
	c0,0,1.554-0.628,2.183-0.096c0,0,3.312-0.05,4.246,0.869c0,0,1.498,1.113,3.052,2.177c0,0,2.697,2.369,3.167,2.95
	c0,0,2.163,0.484,2.087,1.11c0,0-0.099,0.968-0.304,1.452l-0.42,2.273c0,0-0.211,1.933-0.25,2.368c0,0,1.421,3.337,2.184,4.161
	c0,0,0.544,0.916,1.134,1.401c0,0,2.163,1.452,1.76,2.418l-0.023,1.548c0,0,1.147,3.24-0.132,3.482
	C376.668,167.685,374.906,167.828,375.142,168.12z"/>
</svg>