<!-- Generator: Adobe Illustrator 19.0.0, SVG Export Plug-In  -->
<svg version="1.1"
	 xmlns="http://www.w3.org/2000/svg" xmlns:xlink="http://www.w3.org/1999/xlink" xmlns:a="http://ns.adobe.com/AdobeSVGViewerExtensions/3.0/"
	 x="0px" y="0px" width="39.275px" height="39.275px" viewBox="0 0 39.275 39.275" enable-background="new 0 0 39.275 39.275"
	 xml:space="preserve">
<defs>
</defs>
<path id="XMLID_18_" fill="#FFFFFF" d="M18.746,15.646c0,0.23-0.004,0.386,0.001,0.541c0.074,2.828,0.153,5.656,0.216,8.484
	c0.004,0.191-0.039,0.384-0.144,0.543c-0.313,0.476-0.425,0.949-0.342,1.426c0.045,0.257,0.145,0.515,0.302,0.776
	c0.09,0.151,0.203,0.237,0.318,0.256c0.15,0.026,0.304-0.06,0.418-0.259c0.216-0.376,0.347-0.8,0.539-1.191
	c0.064-0.13,0.208-0.318,0.309-0.422c0.495-0.506,1-1.003,1.503-1.501c0.895-0.888,1.83-1.729,2.948-2.334
	c0.64-0.346,1.29-0.608,2.05-0.319c1.979,0.755,3.153,2.304,4.093,4.089c0.141,0.267,0.189,0.583,0.333,0.85
	c0.072,0.135,0.18,0.232,0.303,0.288c0.219,0.1,0.488,0.07,0.697-0.106c0.532-0.448,0.714-1.076,0.366-1.739
	c-0.289-0.551-0.325-1.078-0.252-1.679c0.284-2.318,0.528-4.641,0.779-6.964c0.066-0.611,0.152-1.226,0.138-1.837
	c-0.016-0.68-0.337-1.243-0.945-1.581c-0.434-0.242-0.899-0.043-0.963,0.45c-0.018,0.141-0.013,0.283-0.015,0.425
	c-0.038,2.848-0.076,5.696-0.114,8.544c-0.001,0.097-0.011,0.194-0.021,0.349c-0.207-0.234-0.359-0.425-0.531-0.597
	c-0.707-0.71-1.537-1.258-2.424-1.706c-0.552-0.279-1.149-0.476-1.737-0.678c-0.312-0.107-0.612-0.146-0.903-0.131
	c-0.537,0.028-1.045,0.241-1.542,0.555c-0.958,0.607-1.705,1.433-2.464,2.251c-0.362,0.391-0.719,0.786-1.109,1.214
	c-0.008-0.109-0.015-0.163-0.016-0.218c-0.017-1.041-0.025-2.081-0.053-3.122c-0.051-1.887-0.118-3.774-0.164-5.661
	c-0.005-0.198,0.043-0.397,0.15-0.564c0.478-0.739,0.486-1.466,0.02-2.209c-0.222-0.354-0.496-0.377-0.707-0.007
	c-0.225,0.394-0.367,0.834-0.571,1.241c-0.065,0.129-0.209,0.315-0.31,0.417c-0.558,0.564-1.127,1.118-1.689,1.678
	c-0.841,0.838-1.738,1.605-2.792,2.165c-0.598,0.318-1.214,0.582-1.918,0.326c-0.933-0.339-1.749-0.856-2.413-1.592
	c-0.866-0.959-1.641-1.978-2.03-3.24c-0.183-0.595-0.809-0.623-1.193-0.204c-0.412,0.449-0.593,1.004-0.271,1.537
	c0.397,0.656,0.366,1.316,0.256,2.01c-0.023,0.148-0.034,0.298-0.053,0.446c-0.201,1.556-0.438,3.109-0.542,4.675
	c-0.074,1.11-0.264,2.225-0.297,3.342c-0.02,0.677,0.295,1.231,0.849,1.619c0.219,0.154,0.519,0.169,0.743,0.023
	c0.364-0.236,0.33-0.492,0.334-0.747c0.038-2.877,0.076-5.753,0.115-8.63C8,16.834,8.011,16.736,8.021,16.6
	c0.07,0.056,0.103,0.075,0.126,0.103c1.157,1.354,2.63,2.213,4.298,2.78c0.358,0.122,0.703,0.182,1.039,0.182
	c0.581,0,1.135-0.182,1.683-0.543c0.873-0.575,1.588-1.308,2.288-2.066C17.869,16.608,18.279,16.157,18.746,15.646z"/>
<path id="XMLID_15_" fill="#FFFFFF" d="M19.638,39.275C8.81,39.275,0,30.466,0,19.638S8.81,0,19.638,0s19.638,8.81,19.638,19.638
	S30.466,39.275,19.638,39.275z M19.638,1.313c-10.104,0-18.325,8.221-18.325,18.325s8.221,18.325,18.325,18.325
	s18.325-8.22,18.325-18.325S29.742,1.313,19.638,1.313z"/>
</svg>