<!-- Generator: Adobe Illustrator 19.0.0, SVG Export Plug-In  -->
<svg version="1.1"
	 xmlns="http://www.w3.org/2000/svg" xmlns:xlink="http://www.w3.org/1999/xlink" xmlns:a="http://ns.adobe.com/AdobeSVGViewerExtensions/3.0/"
	 x="0px" y="0px" width="177.069px" height="58.891px" viewBox="0 0 177.069 58.891" enable-background="new 0 0 177.069 58.891"
	 xml:space="preserve">
<defs>
</defs>
<path id="XMLID_349_" d="M34.032,24.478c0,0.23-0.004,0.386,0.001,0.541c0.074,2.828,0.153,5.656,0.216,8.484
	c0.004,0.191-0.039,0.384-0.144,0.543c-0.313,0.476-0.425,0.949-0.342,1.426c0.045,0.257,0.145,0.515,0.302,0.776
	c0.09,0.151,0.203,0.237,0.318,0.256c0.15,0.026,0.304-0.06,0.418-0.259c0.216-0.376,0.347-0.8,0.539-1.191
	c0.064-0.13,0.208-0.318,0.309-0.422c0.495-0.506,1-1.003,1.503-1.501c0.895-0.888,1.83-1.729,2.948-2.334
	c0.64-0.346,1.29-0.608,2.05-0.319c1.979,0.755,3.153,2.304,4.093,4.089c0.141,0.267,0.189,0.583,0.333,0.85
	c0.072,0.135,0.18,0.232,0.303,0.288c0.219,0.1,0.488,0.07,0.697-0.106c0.532-0.448,0.714-1.076,0.366-1.739
	c-0.289-0.551-0.325-1.078-0.252-1.679c0.284-2.318,0.528-4.641,0.779-6.964c0.066-0.611,0.152-1.226,0.138-1.837
	c-0.016-0.68-0.337-1.243-0.945-1.581c-0.434-0.242-0.899-0.043-0.963,0.45c-0.018,0.141-0.013,0.283-0.015,0.425
	c-0.038,2.848-0.076,5.696-0.114,8.544c-0.001,0.097-0.011,0.194-0.021,0.349c-0.207-0.234-0.359-0.425-0.531-0.597
	c-0.707-0.71-1.537-1.258-2.424-1.706c-0.552-0.279-1.149-0.476-1.737-0.678c-0.312-0.107-0.612-0.146-0.903-0.131
	c-0.537,0.028-1.045,0.241-1.542,0.555c-0.958,0.607-1.705,1.433-2.464,2.251c-0.362,0.391-0.719,0.786-1.109,1.214
	c-0.008-0.109-0.015-0.163-0.016-0.218c-0.017-1.041-0.025-2.081-0.053-3.122c-0.051-1.887-0.118-3.774-0.164-5.661
	c-0.005-0.198,0.043-0.397,0.15-0.564c0.478-0.739,0.486-1.466,0.02-2.209c-0.222-0.354-0.496-0.377-0.707-0.007
	c-0.225,0.394-0.367,0.834-0.571,1.241c-0.065,0.129-0.209,0.315-0.31,0.417c-0.558,0.564-1.127,1.118-1.689,1.678
	c-0.841,0.838-1.738,1.605-2.792,2.165c-0.598,0.318-1.214,0.582-1.918,0.326c-0.933-0.339-1.749-0.856-2.414-1.592
	c-0.866-0.959-1.641-1.978-2.03-3.24c-0.183-0.595-0.809-0.623-1.193-0.204c-0.412,0.449-0.593,1.004-0.271,1.537
	c0.397,0.656,0.366,1.316,0.256,2.01c-0.023,0.148-0.034,0.298-0.053,0.446c-0.201,1.556-0.438,3.109-0.542,4.675
	c-0.074,1.11-0.264,2.225-0.297,3.342c-0.02,0.677,0.295,1.231,0.849,1.619c0.219,0.154,0.519,0.169,0.743,0.023
	c0.364-0.236,0.33-0.492,0.334-0.747c0.038-2.877,0.076-5.753,0.115-8.63c0.001-0.098,0.013-0.195,0.022-0.331
	c0.07,0.056,0.103,0.075,0.126,0.103c1.157,1.354,2.63,2.213,4.298,2.78c0.358,0.122,0.703,0.182,1.039,0.182
	c0.581,0,1.135-0.182,1.683-0.543c0.873-0.575,1.588-1.308,2.288-2.066C33.155,25.44,33.565,24.988,34.032,24.478z"/>
<path id="XMLID_346_" d="M34.924,48.107c-10.828,0-19.638-8.81-19.638-19.638s8.81-19.637,19.638-19.637s19.638,8.809,19.638,19.637
	S45.752,48.107,34.924,48.107z M34.924,10.145c-10.104,0-18.325,8.22-18.325,18.325s8.221,18.325,18.325,18.325
	s18.325-8.221,18.325-18.325S45.028,10.145,34.924,10.145z"/>
<path id="XMLID_343_" d="M177.069,58.891H0V0h177.069V58.891z M1.711,57.179h173.647V1.711H1.711V57.179z"/>
<g id="XMLID_268_">
	<path id="XMLID_341_" d="M65.956,27.286c0,0.162,0.054,0.282,0.163,0.363c0.108,0.081,0.248,0.121,0.423,0.121h0.26v0.363h-2.658
		v-0.363h0.302c0.201,0,0.342-0.039,0.423-0.121c0.081-0.08,0.121-0.201,0.121-0.363v-7.915h-0.121l-2.054,8.761h-0.363l-1.873-8.58
		h-0.121v7.734c0,0.162,0.05,0.282,0.151,0.363c0.1,0.081,0.232,0.121,0.393,0.121h0.181v0.363H59.37v-0.363h0.181
		c0.201,0,0.342-0.039,0.423-0.121c0.081-0.08,0.121-0.201,0.121-0.363v-8.64c0-0.16-0.038-0.281-0.112-0.363
		c-0.075-0.08-0.205-0.121-0.39-0.121H59.37V17.8h1.692l1.714,7.852h0.124l1.84-7.852h2.062v0.363h-0.26
		c-0.175,0-0.315,0.041-0.423,0.121c-0.109,0.081-0.163,0.202-0.163,0.363V27.286z"/>
	<path id="XMLID_339_" d="M79.657,18.888c0.042-0.242,0.012-0.423-0.09-0.544s-0.293-0.181-0.575-0.181h-0.121V17.8h2.415v0.363
		h-0.183c-0.204,0-0.386,0.071-0.549,0.211c-0.162,0.142-0.305,0.353-0.426,0.634l-1.863,4.773v3.504
		c0,0.162,0.05,0.282,0.151,0.363c0.1,0.081,0.232,0.121,0.393,0.121h0.544v0.363h-3.142v-0.363h0.544
		c0.201,0,0.342-0.039,0.423-0.121c0.081-0.08,0.121-0.201,0.121-0.363v-3.142l-2.107-5.317c-0.081-0.201-0.183-0.363-0.305-0.483
		c-0.123-0.121-0.284-0.181-0.488-0.181h-0.122V17.8h2.703v0.363h-0.363c-0.242,0-0.383,0.06-0.425,0.181
		c-0.042,0.121-0.021,0.302,0.062,0.544l1.649,4.491h0.129L79.657,18.888z"/>
	<path id="XMLID_337_" d="M103.768,17.8v0.363h-0.242c-0.081,0-0.172,0.041-0.272,0.121c-0.101,0.081-0.172,0.222-0.211,0.423
		l-1.631,9.425h-0.363l-0.938-6.404h-0.123l-1.296,6.404H98.33l-1.45-9.486c0-0.16-0.03-0.281-0.091-0.363
		c-0.06-0.08-0.151-0.121-0.272-0.121h-0.242V17.8H98.4v0.363h-0.181c-0.161,0-0.282,0.041-0.363,0.121
		c-0.081,0.081-0.121,0.202-0.121,0.363l0.939,6.535h0.123l1.056-5.217l-0.193-1.317c0-0.16-0.051-0.281-0.151-0.363
		c-0.101-0.08-0.191-0.121-0.272-0.121h-0.181V17.8h2.063v0.363h-0.181c-0.161,0-0.272,0.041-0.332,0.121
		c-0.06,0.081-0.091,0.202-0.091,0.363l0.853,6.215h0.122l1.115-6.094c0.04-0.201,0.01-0.352-0.091-0.453
		c-0.102-0.1-0.232-0.151-0.393-0.151h-0.181V17.8H103.768z"/>
	<path id="XMLID_334_" d="M118.252,22.936c0,1.652-0.323,2.951-0.967,3.897c-0.644,0.947-1.45,1.42-2.417,1.42
		c-0.927,0-1.722-0.483-2.387-1.45s-0.997-2.255-0.997-3.867c0-1.571,0.311-2.84,0.936-3.806c0.624-0.967,1.44-1.45,2.447-1.45
		c1.047,0,1.873,0.514,2.477,1.541C117.95,20.247,118.252,21.486,118.252,22.936z M112.573,22.906c0,1.743,0.217,3.01,0.651,3.8
		c0.435,0.79,0.982,1.185,1.645,1.185c0.702,0,1.261-0.375,1.675-1.124c0.413-0.749,0.621-2.036,0.621-3.86
		c0-1.459-0.176-2.635-0.528-3.526c-0.351-0.891-0.941-1.338-1.768-1.338c-0.703,0-1.262,0.406-1.676,1.216
		C112.779,20.069,112.573,21.285,112.573,22.906z"/>
	<path id="XMLID_331_" d="M132.556,20.217c0,0.806-0.222,1.43-0.665,1.873c-0.444,0.444-0.947,0.705-1.51,0.785l1.813,4.471
		c0.081,0.162,0.171,0.272,0.272,0.332c0.1,0.06,0.211,0.091,0.332,0.091h0.363v0.363h-1.691l-2.107-5.196h-1.277v4.35
		c0,0.162,0.046,0.282,0.141,0.363c0.094,0.081,0.216,0.121,0.367,0.121h0.338v0.363h-2.658v-0.363h0.338
		c0.188,0,0.319-0.039,0.394-0.121c0.076-0.08,0.113-0.201,0.113-0.363v-8.64c0-0.16-0.038-0.281-0.113-0.363
		c-0.076-0.08-0.206-0.121-0.394-0.121h-0.338V17.8h3.411c0.917,0,1.625,0.202,2.124,0.604
		C132.306,18.808,132.556,19.412,132.556,20.217z M128.085,22.573h1.306c0.592,0,1.088-0.181,1.484-0.544
		c0.396-0.363,0.594-0.926,0.594-1.692c0-0.684-0.179-1.218-0.535-1.601c-0.357-0.382-0.91-0.574-1.662-0.574h-0.653
		c-0.159,0-0.288,0.041-0.386,0.121c-0.1,0.081-0.149,0.202-0.149,0.363V22.573z"/>
	<path id="XMLID_329_" d="M142.932,27.286c0,0.162,0.05,0.282,0.151,0.363c0.1,0.081,0.232,0.121,0.393,0.121h1.631
		c0.564,0,1.047-0.171,1.45-0.514c0.402-0.342,0.704-0.876,0.906-1.601l0.302,0.121l-0.544,2.356h-6.223v-0.363h0.423
		c0.201,0,0.342-0.039,0.423-0.121c0.081-0.08,0.121-0.201,0.121-0.363v-8.64c0-0.16-0.044-0.281-0.129-0.363
		c-0.086-0.08-0.236-0.121-0.451-0.121h-0.387V17.8h2.9v0.363h-0.423c-0.161,0-0.293,0.041-0.393,0.121
		c-0.101,0.081-0.151,0.202-0.151,0.363V27.286z"/>
	<path id="XMLID_326_" d="M156.571,18.646c0-0.16-0.038-0.281-0.113-0.363c-0.076-0.08-0.206-0.121-0.394-0.121h-0.338V17.8h2.695
		c1.237,0,2.225,0.403,2.963,1.208c0.738,0.806,1.109,2.054,1.109,3.746c0,1.853-0.357,3.213-1.069,4.078
		c-0.712,0.867-1.761,1.299-3.145,1.299h-2.553v-0.363h0.37c0.175,0,0.3-0.039,0.37-0.121c0.07-0.08,0.106-0.201,0.106-0.363V18.646
		z M161.404,22.875c0-1.731-0.266-2.95-0.798-3.655c-0.532-0.704-1.269-1.057-2.21-1.057c-0.287,0-0.502,0.041-0.645,0.121
		c-0.143,0.081-0.214,0.202-0.214,0.363v8.64c0,0.162,0.061,0.282,0.184,0.363c0.123,0.081,0.286,0.121,0.491,0.121
		c0.901,0,1.658-0.332,2.272-0.997C161.097,26.108,161.404,24.809,161.404,22.875z"/>
	<path id="XMLID_324_" d="M64.811,34.03c0.098,1.477,0.32,2.782,0.665,3.914c0.541-0.886,0.91-1.772,1.108-2.658
		c0.196-0.197,0.344-0.172,0.443,0.074c-0.247,1.034-0.69,2.068-1.329,3.102c0.541,1.132,1.058,1.821,1.551,2.068
		c0.295,0,0.418-0.689,0.369-2.068c0.148-0.246,0.295-0.246,0.443,0c0.049,1.329-0.074,2.142-0.369,2.437
		c-0.148,0.148-0.369,0.172-0.665,0.074c-0.591-0.345-1.157-1.083-1.698-2.215c-0.738,0.788-1.724,1.452-2.954,1.994
		c-0.295-0.05-0.345-0.197-0.148-0.443c1.132-0.493,2.092-1.157,2.88-1.994c-0.394-1.182-0.64-2.609-0.738-4.283h-3.249
		c-0.394,0-0.591,0.197-0.591,0.591v1.034h1.92c0.639,0,0.935,0.32,0.886,0.96l-0.148,2.142c-0.099,0.984-0.911,1.083-2.437,0.295
		c-0.148-0.295-0.074-0.443,0.222-0.443c1.182,0.64,1.772,0.665,1.772,0.074l0.148-1.994c0.049-0.394-0.148-0.591-0.591-0.591
		h-1.772v0.886c0.049,1.723-0.247,3.028-0.886,3.914c-0.247,0.148-0.369,0.074-0.369-0.222c0.591-1.034,0.861-2.264,0.812-3.692
		v-2.437c0-0.64,0.344-0.96,1.034-0.96h3.249l-0.074-1.182c0.148-0.246,0.295-0.246,0.443,0l0.074,1.182H67.1l-0.517-0.812
		c0-0.246,0.123-0.344,0.369-0.295c0.394,0.591,0.763,1.255,1.108,1.994c0,0.295-0.123,0.369-0.369,0.222
		c-0.148-0.246-0.271-0.467-0.369-0.665H64.811z"/>
	<path id="XMLID_318_" d="M71.162,32.48c0.196-0.295,0.344-0.295,0.443,0v0.886h1.772l0.222-0.369
		c0.246-0.197,0.394-0.148,0.443,0.148c-0.345,0.689-0.788,1.354-1.329,1.994h1.403c0.246,0.148,0.246,0.295,0,0.443h-1.698
		c-0.394,0.443-0.738,0.788-1.034,1.034h1.698c0.541,0,0.787,0.246,0.738,0.738v2.658c0.049,0.541-0.197,0.788-0.738,0.738h-2.215
		c-0.493,0.049-0.738-0.197-0.738-0.738v-2.289c-0.295,0.197-0.542,0.369-0.738,0.517c-0.345,0.05-0.443-0.074-0.295-0.369
		c0.935-0.591,1.846-1.354,2.732-2.289h-2.732c-0.247-0.148-0.247-0.295,0-0.443h2.068v-1.329h-1.625
		c-0.295-0.148-0.295-0.295,0-0.443h1.625V32.48z M72.934,37.058h-1.92l-0.443,0.369v0.96h2.806v-0.886
		C73.426,37.206,73.278,37.058,72.934,37.058z M73.377,38.83h-2.806v1.034c0,0.344,0.148,0.492,0.443,0.443h1.92
		c0.344,0.049,0.492-0.099,0.443-0.443V38.83z M73.156,33.809h-1.551v1.329h0.517C72.417,34.843,72.761,34.4,73.156,33.809z
		 M75.297,32.627h1.182c0.541,0,0.787,0.295,0.738,0.886c-0.148,0.788-0.394,1.502-0.738,2.142c-0.099,0.148-0.074,0.32,0.074,0.517
		c0.689,0.886,1.009,1.649,0.96,2.289c0.049,1.526-0.69,1.944-2.215,1.255c-0.148-0.246-0.099-0.394,0.148-0.443
		c1.132,0.591,1.673,0.32,1.625-0.812c0.049-0.541-0.247-1.206-0.886-1.994c-0.247-0.394-0.295-0.714-0.148-0.96
		c0.344-0.591,0.591-1.255,0.738-1.994c0-0.295-0.148-0.443-0.443-0.443h-0.886c-0.295,0-0.443,0.148-0.443,0.443v7.311
		c-0.148,0.295-0.295,0.295-0.443,0v-7.458C74.559,32.874,74.805,32.627,75.297,32.627z"/>
	<path id="XMLID_314_" d="M78.62,35.655c-0.197-0.148-0.197-0.295,0-0.443h0.738c0.639,0,0.935,0.32,0.886,0.96v3.249
		c0.639,0.689,1.87,1.009,3.692,0.96h2.954c0.196,0.148,0.196,0.295,0,0.443h-3.028c-1.576,0.098-2.831-0.197-3.766-0.886
		c-0.247,0.295-0.69,0.64-1.329,1.034c-0.295-0.05-0.345-0.197-0.148-0.443c0.787-0.493,1.182-0.861,1.182-1.108v-3.175
		c0.049-0.394-0.148-0.591-0.591-0.591H78.62z M79.359,32.332c0.443,0.64,0.787,1.231,1.034,1.772
		c-0.05,0.246-0.197,0.32-0.443,0.222c-0.295-0.64-0.616-1.206-0.96-1.698C78.989,32.381,79.112,32.283,79.359,32.332z
		 M81.131,32.849h5.76c0.246,0.148,0.246,0.295,0,0.443h-3.545v1.477h2.437c0.787,0,1.156,0.295,1.108,0.886l-0.074,2.215
		c0.098,1.723-0.788,2.387-2.658,1.994c-0.148-0.246-0.099-0.394,0.148-0.443c1.477,0.295,2.166-0.172,2.068-1.403l0.074-2.289
		c0.049-0.344-0.148-0.517-0.591-0.517h-2.511c-0.05,2.215-0.788,3.668-2.215,4.357c-0.295,0-0.369-0.123-0.222-0.369
		c1.378-0.689,2.043-2.142,1.994-4.357v-1.551h-1.772C80.934,33.144,80.934,32.996,81.131,32.849z"/>
	<path id="XMLID_309_" d="M88.22,34.769c0.492,0.345,1.008,0.886,1.55,1.625c0,0.246-0.123,0.345-0.369,0.295
		c-0.394-0.541-0.886-1.058-1.476-1.551C87.875,34.892,87.973,34.769,88.22,34.769z M90.066,37.132
		c0.196-0.148,0.344-0.098,0.443,0.148c-0.591,1.625-1.329,2.781-2.215,3.471c-0.247,0.098-0.369,0-0.369-0.295
		C88.86,39.667,89.573,38.56,90.066,37.132z M88.811,32.627c0.59,0.542,1.107,1.108,1.55,1.698c0,0.246-0.123,0.345-0.369,0.295
		c-0.394-0.541-0.886-1.083-1.476-1.625C88.466,32.8,88.564,32.677,88.811,32.627z M95.383,32.48
		c0.295,0.05,0.344,0.197,0.148,0.443c-0.394,0.148-1.157,0.32-2.289,0.517v2.658h3.102c0.196,0.148,0.196,0.295,0,0.443h-3.102
		c0.639,1.772,1.772,3.126,3.397,4.062c0.098,0.295,0,0.418-0.295,0.369c-1.576-0.936-2.658-2.166-3.249-3.692
		c-0.493,1.674-1.576,2.904-3.249,3.692c-0.247-0.099-0.295-0.246-0.148-0.443c1.723-0.788,2.757-2.117,3.102-3.988H90.14
		c-0.197-0.148-0.197-0.295,0-0.443h2.658v-2.585c-0.64,0.099-1.403,0.172-2.289,0.222c-0.197-0.148-0.197-0.295,0-0.443
		C92.084,33.243,93.709,32.972,95.383,32.48z"/>
	<path id="XMLID_297_" d="M99.37,34.769c0.246-0.049,0.369,0.05,0.369,0.295c-0.295,0.542-0.616,1.059-0.96,1.551v4.209
		c-0.148,0.246-0.295,0.246-0.443,0v-3.692c-0.394,0.443-0.714,0.714-0.96,0.812c-0.197,0-0.271-0.123-0.222-0.369
		C97.942,36.984,98.681,36.049,99.37,34.769z M99.075,32.48c0.196-0.197,0.344-0.148,0.443,0.148
		c-0.443,1.083-1.059,1.945-1.846,2.585c-0.295,0.05-0.394-0.074-0.295-0.369C98.164,34.154,98.73,33.366,99.075,32.48z
		 M100.404,38.24c-0.099,0.788-0.321,1.501-0.665,2.142c-0.295,0.148-0.419,0.074-0.369-0.222c0.344-0.788,0.541-1.452,0.591-1.994
		C100.158,37.92,100.305,37.944,100.404,38.24z M99.666,36.984h5.908c0.196,0.148,0.196,0.295,0,0.443h-5.908
		C99.469,37.28,99.469,37.132,99.666,36.984z M102.398,32.332c0.196-0.197,0.344-0.197,0.443,0l-0.074,0.591h2.806
		c0.246,0.148,0.246,0.295,0,0.443h-2.88l-0.074,0.591h1.92c0.541,0,0.787,0.246,0.738,0.738v0.886
		c0.049,0.542-0.197,0.788-0.738,0.738h-3.84c-0.493,0.05-0.738-0.197-0.738-0.738v-0.886c0-0.492,0.246-0.738,0.738-0.738h1.477
		l0.074-0.591h-2.289c-0.247-0.148-0.247-0.295,0-0.443h2.363L102.398,32.332z M101.586,34.4h-0.738
		c-0.295,0-0.443,0.148-0.443,0.443v0.591c0,0.345,0.148,0.493,0.443,0.443h0.738V34.4z M100.995,38.018
		c0.148-0.197,0.295-0.197,0.443,0v1.846c0,0.344,0.196,0.492,0.591,0.443h1.846c0.394,0.098,0.566-0.222,0.517-0.96
		c0.148-0.246,0.295-0.246,0.443,0c0.049,1.034-0.222,1.501-0.812,1.403h-2.142c-0.591,0.049-0.886-0.197-0.886-0.738V38.018z
		 M103.21,34.4h-1.182v1.477h1.182V34.4z M102.841,37.796c0.295,0.542,0.591,1.182,0.886,1.92c-0.099,0.295-0.271,0.344-0.517,0.148
		c-0.197-0.64-0.468-1.231-0.812-1.772C102.398,37.796,102.546,37.698,102.841,37.796z M104.392,34.4h-0.738v1.477h0.738
		c0.344,0.05,0.492-0.098,0.443-0.443v-0.591C104.884,34.547,104.736,34.4,104.392,34.4z M104.983,38.018
		c0.443,0.689,0.763,1.428,0.96,2.215c-0.05,0.295-0.173,0.344-0.369,0.148c-0.247-0.788-0.566-1.501-0.96-2.142
		C104.613,37.944,104.736,37.87,104.983,38.018z"/>
	<path id="XMLID_292_" d="M110.004,32.406c0.246,0.05,0.295,0.197,0.148,0.443c-0.394,0.099-0.812,0.172-1.255,0.222v1.846h1.329
		c0.196,0.148,0.196,0.295,0,0.443h-1.182c0.591,0.788,1.083,1.526,1.477,2.215c0.049,0.295-0.074,0.394-0.369,0.295
		c-0.394-0.689-0.812-1.329-1.255-1.92v5.022c-0.148,0.197-0.295,0.197-0.443,0v-4.357c-0.345,0.788-0.812,1.551-1.403,2.289
		c-0.247,0.05-0.345-0.049-0.295-0.295c0.837-1.132,1.378-2.215,1.625-3.249h-1.477c-0.197-0.148-0.197-0.295,0-0.443h1.551v-1.772
		h-1.182c-0.197-0.148-0.197-0.295,0-0.443C108.306,32.751,109.216,32.652,110.004,32.406z M114.509,32.553v5.538l0.886-0.148
		c0.196,0.148,0.196,0.295,0,0.443l-0.886,0.148v2.437c-0.148,0.197-0.295,0.197-0.443,0v-2.363l-3.84,0.443
		c-0.197-0.148-0.197-0.295,0-0.443l3.84-0.443v-5.612C114.213,32.307,114.361,32.307,114.509,32.553z M111.038,35.064
		c0.837,0.788,1.575,1.526,2.215,2.215c0.098,0.295-0.025,0.394-0.369,0.295c-0.788-0.837-1.502-1.551-2.142-2.142
		C110.693,35.187,110.791,35.064,111.038,35.064z M111.629,32.627c0.639,0.64,1.354,1.428,2.142,2.363
		c0.098,0.295,0,0.419-0.295,0.369c-0.837-0.984-1.551-1.772-2.142-2.363C111.284,32.701,111.382,32.578,111.629,32.627z"/>
	<path id="XMLID_288_" d="M117.98,32.627V34.4h1.182c0.196,0.148,0.196,0.295,0,0.443h-1.182v2.215
		c0.246-0.148,0.566-0.344,0.96-0.591c0.246,0,0.32,0.123,0.222,0.369c-0.345,0.246-0.738,0.493-1.182,0.738v2.806
		c0,0.541-0.542,0.689-1.625,0.443c-0.148-0.246-0.099-0.394,0.148-0.443c0.738,0.197,1.083,0.172,1.034-0.074v-2.511
		c-0.345,0.197-0.714,0.369-1.108,0.517c-0.247-0.098-0.295-0.246-0.148-0.443c0.394-0.148,0.812-0.344,1.255-0.591v-2.437h-1.182
		c-0.247-0.148-0.247-0.295,0-0.443h1.182v-1.772C117.684,32.381,117.832,32.381,117.98,32.627z M121.967,32.48v1.034h2.511
		c0.246,0.148,0.246,0.295,0,0.443h-2.511v1.477h1.477c0.639,0,0.861,0.295,0.665,0.886c-0.345,0.936-0.96,1.822-1.846,2.658
		c0.837,0.689,1.625,1.206,2.363,1.551c0.246,0.246,0.196,0.394-0.148,0.443c-0.886-0.394-1.748-0.96-2.585-1.698
		c-1.133,0.788-2.265,1.329-3.397,1.625c-0.295-0.099-0.321-0.246-0.074-0.443c1.182-0.345,2.215-0.837,3.102-1.477
		c-0.738-0.837-1.329-1.87-1.772-3.102h-0.295c-0.197-0.148-0.197-0.295,0-0.443h2.068v-1.477h-2.363
		c-0.197-0.148-0.197-0.295,0-0.443h2.363V32.48C121.672,32.283,121.82,32.283,121.967,32.48z M120.195,35.876
		c0.443,1.132,1.009,2.068,1.698,2.806c0.837-0.788,1.427-1.625,1.772-2.511c0.049-0.197-0.05-0.295-0.295-0.295H120.195z"/>
	<path id="XMLID_284_" d="M129.426,32.332c0.246-0.098,0.369-0.024,0.369,0.222l-0.369,0.665h4.726c0.196,0.148,0.196,0.295,0,0.443
		h-4.948c-0.443,0.542-0.788,0.936-1.034,1.182h4.505c0.541,0,0.787,0.246,0.738,0.738v4.357c0.098,0.64-0.222,0.984-0.96,1.034
		c-0.247,0-0.665-0.099-1.255-0.295c-0.148-0.197-0.099-0.345,0.148-0.443c0.443,0.197,0.787,0.295,1.034,0.295
		c0.443,0,0.639-0.197,0.591-0.591V38.83h-5.317v1.994c-0.148,0.246-0.295,0.246-0.443,0v-5.169
		c-0.493,0.394-0.985,0.689-1.477,0.886c-0.295,0-0.369-0.123-0.222-0.369c1.477-0.837,2.511-1.674,3.102-2.511h-2.732
		c-0.247-0.148-0.247-0.295,0-0.443h2.954L129.426,32.332z M132.97,35.729c0.049-0.295-0.099-0.443-0.443-0.443h-4.431
		c-0.295,0-0.443,0.148-0.443,0.443v0.886h5.317V35.729z M132.97,37.058h-5.317v1.329h5.317V37.058z"/>
	<path id="XMLID_278_" d="M136.146,32.553h0.886c0.541,0,0.787,0.246,0.738,0.738c-0.049,0.443-0.222,1.059-0.517,1.846
		c-0.099,0.148-0.099,0.295,0,0.443c0.639,1.083,0.837,1.945,0.591,2.585c-0.197,0.443-0.862,0.566-1.994,0.369v2.289
		c-0.148,0.197-0.295,0.197-0.443,0v-7.532C135.407,32.8,135.653,32.553,136.146,32.553z M136.884,32.996h-0.591
		c-0.295,0-0.443,0.148-0.443,0.443v4.652c1.083,0.197,1.625,0.123,1.625-0.222c0.148-0.492-0.049-1.182-0.591-2.068
		c-0.148-0.197-0.173-0.443-0.074-0.738c0.246-0.541,0.418-1.083,0.517-1.625C137.425,33.144,137.278,32.996,136.884,32.996z
		 M139.247,32.553h2.954c0.541,0,0.787,0.246,0.738,0.738v2.806c0.049,0.542-0.197,0.788-0.738,0.738h-1.772
		c0.148,0.689,0.418,1.28,0.812,1.772c0.787-0.492,1.378-0.96,1.772-1.403c0.246,0,0.344,0.123,0.295,0.369
		c-0.295,0.345-0.886,0.812-1.772,1.403c0.689,0.738,1.378,1.255,2.068,1.551c0.148,0.246,0.098,0.394-0.148,0.443
		c-1.92-0.936-3.077-2.314-3.471-4.135h-1.034v3.249c0,0.295,0.098,0.418,0.295,0.369c0.443-0.05,0.984-0.197,1.625-0.443
		c0.246,0.049,0.295,0.197,0.148,0.443c-0.936,0.344-1.625,0.517-2.068,0.517c-0.295,0-0.443-0.246-0.443-0.738v-6.942
		C138.509,32.8,138.755,32.553,139.247,32.553z M142.053,32.996h-2.658c-0.295,0-0.443,0.148-0.443,0.443v1.034h3.545V33.44
		C142.545,33.144,142.397,32.996,142.053,32.996z M142.496,34.916h-3.545v1.477h3.102c0.344,0.05,0.492-0.098,0.443-0.443V34.916z"
		/>
	<path id="XMLID_274_" d="M147.813,32.849c-0.64,1.625-1.674,3.003-3.102,4.135c-0.247,0-0.345-0.098-0.295-0.295
		c1.477-1.28,2.461-2.609,2.954-3.988C147.616,32.504,147.764,32.553,147.813,32.849z M148.847,35.655
		c-0.788,1.526-1.576,2.88-2.363,4.062c-0.197,0.246-0.123,0.344,0.222,0.295c1.427-0.099,3.102-0.246,5.022-0.443
		c-0.345-0.64-0.812-1.452-1.403-2.437c-0.05-0.295,0.074-0.369,0.369-0.222c0.886,1.379,1.575,2.634,2.068,3.766
		c0,0.246-0.123,0.32-0.369,0.222l-0.443-0.886c-2.117,0.197-3.914,0.344-5.391,0.443c-0.69,0.049-0.911-0.172-0.665-0.665
		c0.935-1.329,1.797-2.781,2.585-4.357C148.724,35.286,148.847,35.36,148.847,35.655z M150.176,32.48
		c0.689,1.576,1.723,2.979,3.102,4.209c0.098,0.295,0,0.394-0.295,0.295c-1.428-1.132-2.511-2.585-3.249-4.357
		C149.782,32.332,149.93,32.283,150.176,32.48z"/>
	<path id="XMLID_269_" d="M154.164,34.178h6.794c0.196,0.148,0.196,0.295,0,0.443h-6.794
		C153.967,34.523,153.967,34.375,154.164,34.178z M154.903,32.553h6.425c0.591,0,0.861,0.295,0.812,0.886v6.646
		c0.098,0.689-0.419,0.984-1.551,0.886c-0.493-0.05-1.034-0.197-1.625-0.443c-0.099-0.246-0.025-0.394,0.222-0.443
		c1.772,0.591,2.609,0.566,2.511-0.074v-6.351c0.049-0.443-0.123-0.665-0.517-0.665h-6.277
		C154.705,32.849,154.705,32.701,154.903,32.553z M155.493,35.803h4.135c0.541,0,0.787,0.246,0.738,0.738v2.068
		c0.049,0.542-0.197,0.788-0.738,0.738h-4.135c-0.493,0.05-0.738-0.222-0.738-0.812v-1.994
		C154.755,36.049,155.001,35.803,155.493,35.803z M159.481,36.246h-3.84c-0.295,0-0.443,0.148-0.443,0.443v1.772
		c0,0.345,0.148,0.493,0.443,0.443h3.84c0.344,0.05,0.492-0.098,0.443-0.443v-1.772C159.973,36.393,159.825,36.246,159.481,36.246z"
		/>
</g>
<g id="XMLID_79_">
	<defs>
		<rect id="XMLID_80_" width="177.069" height="29.691"/>
	</defs>
	<clipPath id="XMLID_351_">
		<use xlink:href="#XMLID_80_"  overflow="visible"/>
	</clipPath>
	<path id="XMLID_266_" clip-path="url(#XMLID_351_)" fill="#FFFFFF" d="M34.032,24.478c0,0.23-0.004,0.386,0.001,0.541
		c0.074,2.828,0.153,5.656,0.216,8.484c0.004,0.191-0.039,0.384-0.144,0.543c-0.313,0.476-0.425,0.949-0.342,1.426
		c0.045,0.257,0.145,0.515,0.302,0.776c0.09,0.151,0.203,0.237,0.318,0.256c0.15,0.026,0.304-0.06,0.418-0.259
		c0.216-0.376,0.347-0.8,0.539-1.191c0.064-0.13,0.208-0.318,0.309-0.422c0.495-0.506,1-1.003,1.503-1.501
		c0.895-0.888,1.83-1.729,2.948-2.334c0.64-0.346,1.29-0.608,2.05-0.319c1.979,0.755,3.153,2.304,4.093,4.089
		c0.141,0.267,0.189,0.583,0.333,0.85c0.072,0.135,0.18,0.232,0.303,0.288c0.219,0.1,0.488,0.07,0.697-0.106
		c0.532-0.448,0.714-1.076,0.366-1.739c-0.289-0.551-0.325-1.078-0.252-1.679c0.284-2.318,0.528-4.641,0.779-6.964
		c0.066-0.611,0.152-1.226,0.138-1.837c-0.016-0.68-0.337-1.243-0.945-1.581c-0.434-0.242-0.899-0.043-0.963,0.45
		c-0.018,0.141-0.013,0.283-0.015,0.425c-0.038,2.848-0.076,5.696-0.114,8.544c-0.001,0.097-0.011,0.194-0.021,0.349
		c-0.207-0.234-0.359-0.425-0.531-0.597c-0.707-0.71-1.537-1.258-2.424-1.706c-0.552-0.279-1.149-0.476-1.737-0.678
		c-0.312-0.107-0.612-0.146-0.903-0.131c-0.537,0.028-1.045,0.241-1.542,0.555c-0.958,0.607-1.705,1.433-2.464,2.251
		c-0.362,0.391-0.719,0.786-1.109,1.214c-0.008-0.109-0.015-0.163-0.016-0.218c-0.017-1.041-0.025-2.081-0.053-3.122
		c-0.051-1.887-0.118-3.774-0.164-5.661c-0.005-0.198,0.043-0.397,0.15-0.564c0.478-0.739,0.486-1.466,0.02-2.209
		c-0.222-0.354-0.496-0.377-0.707-0.007c-0.225,0.394-0.367,0.834-0.571,1.241c-0.065,0.129-0.209,0.315-0.31,0.417
		c-0.558,0.564-1.127,1.118-1.689,1.678c-0.841,0.838-1.738,1.605-2.792,2.165c-0.598,0.318-1.214,0.582-1.918,0.326
		c-0.933-0.339-1.749-0.856-2.414-1.592c-0.866-0.959-1.641-1.978-2.03-3.24c-0.183-0.595-0.809-0.623-1.193-0.204
		c-0.412,0.449-0.593,1.004-0.271,1.537c0.397,0.656,0.366,1.316,0.256,2.01c-0.023,0.148-0.034,0.298-0.053,0.446
		c-0.201,1.556-0.438,3.109-0.542,4.675c-0.074,1.11-0.264,2.225-0.297,3.342c-0.02,0.677,0.295,1.231,0.849,1.619
		c0.219,0.154,0.519,0.169,0.743,0.023c0.364-0.236,0.33-0.492,0.334-0.747c0.038-2.877,0.076-5.753,0.115-8.63
		c0.001-0.098,0.013-0.195,0.022-0.331c0.07,0.056,0.103,0.075,0.126,0.103c1.157,1.354,2.63,2.213,4.298,2.78
		c0.358,0.122,0.703,0.182,1.039,0.182c0.581,0,1.135-0.182,1.683-0.543c0.873-0.575,1.588-1.308,2.288-2.066
		C33.155,25.44,33.565,24.988,34.032,24.478z"/>
	<path id="XMLID_263_" clip-path="url(#XMLID_351_)" fill="#FFFFFF" d="M34.924,48.107c-10.828,0-19.638-8.81-19.638-19.638
		s8.81-19.637,19.638-19.637s19.638,8.809,19.638,19.637S45.752,48.107,34.924,48.107z M34.924,10.145
		c-10.104,0-18.325,8.22-18.325,18.325s8.221,18.325,18.325,18.325s18.325-8.221,18.325-18.325S45.028,10.145,34.924,10.145z"/>
	<path id="XMLID_260_" clip-path="url(#XMLID_351_)" fill="#FFFFFF" d="M177.069,58.891H0V0h177.069V58.891z M1.711,57.179h173.647
		V1.711H1.711V57.179z"/>
	<g id="XMLID_91_" clip-path="url(#XMLID_351_)">
		<path id="XMLID_258_" fill="#FFFFFF" d="M66.169,27.286c0,0.162,0.054,0.282,0.163,0.363c0.108,0.081,0.248,0.121,0.423,0.121
			h0.26v0.363h-2.658v-0.363h0.302c0.201,0,0.342-0.039,0.423-0.121c0.081-0.08,0.121-0.201,0.121-0.363v-7.915h-0.121l-2.054,8.761
			h-0.363l-1.873-8.58h-0.121v7.734c0,0.162,0.05,0.282,0.151,0.363c0.1,0.081,0.232,0.121,0.393,0.121h0.181v0.363h-1.813v-0.363
			h0.181c0.201,0,0.342-0.039,0.423-0.121c0.081-0.08,0.121-0.201,0.121-0.363v-8.64c0-0.16-0.038-0.281-0.112-0.363
			c-0.075-0.08-0.205-0.121-0.39-0.121h-0.223V17.8h1.692l1.714,7.852h0.124l1.84-7.852h2.062v0.363h-0.26
			c-0.175,0-0.315,0.041-0.423,0.121c-0.109,0.081-0.163,0.202-0.163,0.363V27.286z"/>
		<path id="XMLID_256_" fill="#FFFFFF" d="M79.87,18.888c0.042-0.242,0.012-0.423-0.09-0.544s-0.293-0.181-0.575-0.181h-0.121V17.8
			H81.5v0.363h-0.183c-0.204,0-0.386,0.071-0.549,0.211c-0.162,0.142-0.305,0.353-0.426,0.634l-1.863,4.773v3.504
			c0,0.162,0.05,0.282,0.151,0.363c0.1,0.081,0.232,0.121,0.393,0.121h0.544v0.363h-3.142v-0.363h0.544
			c0.201,0,0.342-0.039,0.423-0.121c0.081-0.08,0.121-0.201,0.121-0.363v-3.142l-2.107-5.317c-0.081-0.201-0.183-0.363-0.305-0.483
			c-0.123-0.121-0.284-0.181-0.488-0.181h-0.122V17.8h2.703v0.363h-0.363c-0.242,0-0.383,0.06-0.425,0.181
			c-0.042,0.121-0.021,0.302,0.062,0.544l1.649,4.491h0.129L79.87,18.888z"/>
		<path id="XMLID_254_" fill="#FFFFFF" d="M103.981,17.8v0.363h-0.242c-0.081,0-0.172,0.041-0.272,0.121
			c-0.101,0.081-0.172,0.222-0.211,0.423l-1.631,9.425h-0.363l-0.938-6.404h-0.123l-1.296,6.404h-0.363l-1.45-9.486
			c0-0.16-0.03-0.281-0.091-0.363c-0.06-0.08-0.151-0.121-0.272-0.121h-0.242V17.8h2.124v0.363h-0.181
			c-0.161,0-0.282,0.041-0.363,0.121c-0.081,0.081-0.121,0.202-0.121,0.363l0.939,6.535h0.123l1.056-5.217l-0.193-1.317
			c0-0.16-0.051-0.281-0.151-0.363c-0.101-0.08-0.191-0.121-0.272-0.121h-0.181V17.8h2.063v0.363h-0.181
			c-0.161,0-0.272,0.041-0.332,0.121c-0.06,0.081-0.091,0.202-0.091,0.363l0.853,6.215h0.122l1.115-6.094
			c0.04-0.201,0.01-0.352-0.091-0.453c-0.102-0.1-0.232-0.151-0.393-0.151h-0.181V17.8H103.981z"/>
		<path id="XMLID_251_" fill="#FFFFFF" d="M118.466,22.936c0,1.652-0.323,2.951-0.967,3.897c-0.644,0.947-1.45,1.42-2.417,1.42
			c-0.927,0-1.722-0.483-2.387-1.45s-0.997-2.255-0.997-3.867c0-1.571,0.311-2.84,0.937-3.806c0.624-0.967,1.44-1.45,2.447-1.45
			c1.047,0,1.873,0.514,2.477,1.541C118.164,20.247,118.466,21.486,118.466,22.936z M112.787,22.906c0,1.743,0.217,3.01,0.651,3.8
			c0.435,0.79,0.982,1.185,1.645,1.185c0.702,0,1.261-0.375,1.675-1.124c0.413-0.749,0.621-2.036,0.621-3.86
			c0-1.459-0.176-2.635-0.528-3.526c-0.351-0.891-0.941-1.338-1.768-1.338c-0.703,0-1.262,0.406-1.676,1.216
			C112.993,20.069,112.787,21.285,112.787,22.906z"/>
		<path id="XMLID_248_" fill="#FFFFFF" d="M132.77,20.217c0,0.806-0.222,1.43-0.665,1.873c-0.444,0.444-0.947,0.705-1.51,0.785
			l1.813,4.471c0.081,0.162,0.171,0.272,0.272,0.332c0.1,0.06,0.211,0.091,0.332,0.091h0.363v0.363h-1.691l-2.107-5.196h-1.277v4.35
			c0,0.162,0.046,0.282,0.141,0.363c0.094,0.081,0.216,0.121,0.367,0.121h0.338v0.363h-2.658v-0.363h0.338
			c0.188,0,0.319-0.039,0.394-0.121c0.076-0.08,0.113-0.201,0.113-0.363v-8.64c0-0.16-0.038-0.281-0.113-0.363
			c-0.076-0.08-0.206-0.121-0.394-0.121h-0.338V17.8h3.411c0.917,0,1.625,0.202,2.124,0.604
			C132.52,18.808,132.77,19.412,132.77,20.217z M128.299,22.573h1.306c0.592,0,1.088-0.181,1.484-0.544
			c0.396-0.363,0.594-0.926,0.594-1.692c0-0.684-0.179-1.218-0.535-1.601c-0.357-0.382-0.91-0.574-1.662-0.574h-0.653
			c-0.159,0-0.288,0.041-0.386,0.121c-0.1,0.081-0.149,0.202-0.149,0.363V22.573z"/>
		<path id="XMLID_246_" fill="#FFFFFF" d="M143.146,27.286c0,0.162,0.05,0.282,0.151,0.363c0.1,0.081,0.232,0.121,0.393,0.121h1.631
			c0.564,0,1.047-0.171,1.45-0.514c0.402-0.342,0.704-0.876,0.906-1.601l0.302,0.121l-0.544,2.356h-6.223v-0.363h0.423
			c0.201,0,0.342-0.039,0.423-0.121c0.081-0.08,0.121-0.201,0.121-0.363v-8.64c0-0.16-0.044-0.281-0.129-0.363
			c-0.086-0.08-0.236-0.121-0.451-0.121h-0.387V17.8h2.9v0.363h-0.423c-0.161,0-0.293,0.041-0.393,0.121
			c-0.101,0.081-0.151,0.202-0.151,0.363V27.286z"/>
		<path id="XMLID_243_" fill="#FFFFFF" d="M156.785,18.646c0-0.16-0.038-0.281-0.113-0.363c-0.076-0.08-0.206-0.121-0.394-0.121
			h-0.338V17.8h2.695c1.237,0,2.225,0.403,2.963,1.208c0.738,0.806,1.109,2.054,1.109,3.746c0,1.853-0.357,3.213-1.069,4.078
			c-0.712,0.867-1.761,1.299-3.145,1.299h-2.553v-0.363h0.37c0.175,0,0.3-0.039,0.37-0.121c0.07-0.08,0.106-0.201,0.106-0.363
			V18.646z M161.618,22.875c0-1.731-0.266-2.95-0.798-3.655c-0.532-0.704-1.269-1.057-2.21-1.057c-0.287,0-0.502,0.041-0.645,0.121
			c-0.143,0.081-0.214,0.202-0.214,0.363v8.64c0,0.162,0.061,0.282,0.184,0.363c0.123,0.081,0.286,0.121,0.491,0.121
			c0.901,0,1.658-0.332,2.272-0.997C161.311,26.108,161.618,24.809,161.618,22.875z"/>
		<path id="XMLID_241_" fill="#FFFFFF" d="M65.025,34.03c0.098,1.477,0.32,2.782,0.665,3.914c0.541-0.886,0.91-1.772,1.108-2.658
			c0.196-0.197,0.344-0.172,0.443,0.074c-0.247,1.034-0.69,2.068-1.329,3.102c0.541,1.132,1.058,1.821,1.551,2.068
			c0.295,0,0.418-0.689,0.369-2.068c0.148-0.246,0.295-0.246,0.443,0c0.049,1.329-0.074,2.142-0.369,2.437
			c-0.148,0.148-0.369,0.172-0.665,0.074c-0.591-0.345-1.157-1.083-1.698-2.215c-0.738,0.788-1.724,1.452-2.954,1.994
			c-0.295-0.05-0.345-0.197-0.148-0.443c1.132-0.493,2.092-1.157,2.88-1.994c-0.394-1.182-0.64-2.609-0.738-4.283h-3.249
			c-0.394,0-0.591,0.197-0.591,0.591v1.034h1.92c0.639,0,0.935,0.32,0.886,0.96L63.4,38.756c-0.099,0.984-0.911,1.083-2.437,0.295
			c-0.148-0.295-0.074-0.443,0.222-0.443c1.182,0.64,1.772,0.665,1.772,0.074l0.148-1.994c0.049-0.394-0.148-0.591-0.591-0.591
			h-1.772v0.886c0.049,1.723-0.247,3.028-0.886,3.914c-0.247,0.148-0.369,0.074-0.369-0.222c0.591-1.034,0.861-2.264,0.812-3.692
			v-2.437c0-0.64,0.344-0.96,1.034-0.96h3.249l-0.074-1.182c0.148-0.246,0.295-0.246,0.443,0l0.074,1.182h2.289l-0.517-0.812
			c0-0.246,0.123-0.344,0.369-0.295c0.394,0.591,0.763,1.255,1.108,1.994c0,0.295-0.123,0.369-0.369,0.222
			c-0.148-0.246-0.271-0.467-0.369-0.665H65.025z"/>
		<path id="XMLID_235_" fill="#FFFFFF" d="M71.376,32.48c0.196-0.295,0.344-0.295,0.443,0v0.886h1.772l0.222-0.369
			c0.246-0.197,0.394-0.148,0.443,0.148c-0.345,0.689-0.788,1.354-1.329,1.994h1.403c0.246,0.148,0.246,0.295,0,0.443h-1.698
			c-0.394,0.443-0.738,0.788-1.034,1.034h1.698c0.541,0,0.787,0.246,0.738,0.738v2.658c0.049,0.541-0.197,0.788-0.738,0.738H71.08
			c-0.493,0.049-0.738-0.197-0.738-0.738v-2.289c-0.295,0.197-0.542,0.369-0.738,0.517c-0.345,0.05-0.443-0.074-0.295-0.369
			c0.935-0.591,1.846-1.354,2.732-2.289h-2.732c-0.247-0.148-0.247-0.295,0-0.443h2.068v-1.329h-1.625
			c-0.295-0.148-0.295-0.295,0-0.443h1.625V32.48z M73.148,37.058h-1.92l-0.443,0.369v0.96h2.806v-0.886
			C73.64,37.206,73.492,37.058,73.148,37.058z M73.591,38.83h-2.806v1.034c0,0.344,0.148,0.492,0.443,0.443h1.92
			c0.344,0.049,0.492-0.099,0.443-0.443V38.83z M73.369,33.809h-1.551v1.329h0.517C72.631,34.843,72.975,34.4,73.369,33.809z
			 M75.511,32.627h1.182c0.541,0,0.787,0.295,0.738,0.886c-0.148,0.788-0.394,1.502-0.738,2.142
			c-0.099,0.148-0.074,0.32,0.074,0.517c0.689,0.886,1.009,1.649,0.96,2.289c0.049,1.526-0.69,1.944-2.215,1.255
			c-0.148-0.246-0.099-0.394,0.148-0.443c1.132,0.591,1.673,0.32,1.625-0.812c0.049-0.541-0.247-1.206-0.886-1.994
			c-0.247-0.394-0.295-0.714-0.148-0.96c0.344-0.591,0.591-1.255,0.738-1.994c0-0.295-0.148-0.443-0.443-0.443h-0.886
			c-0.295,0-0.443,0.148-0.443,0.443v7.311c-0.148,0.295-0.295,0.295-0.443,0v-7.458C74.772,32.874,75.018,32.627,75.511,32.627z"/>
		<path id="XMLID_231_" fill="#FFFFFF" d="M78.834,35.655c-0.197-0.148-0.197-0.295,0-0.443h0.738c0.639,0,0.935,0.32,0.886,0.96
			v3.249c0.639,0.689,1.87,1.009,3.692,0.96h2.954c0.196,0.148,0.196,0.295,0,0.443h-3.028c-1.576,0.098-2.831-0.197-3.766-0.886
			c-0.247,0.295-0.69,0.64-1.329,1.034c-0.295-0.05-0.345-0.197-0.148-0.443c0.787-0.493,1.182-0.861,1.182-1.108v-3.175
			c0.049-0.394-0.148-0.591-0.591-0.591H78.834z M79.572,32.332c0.443,0.64,0.787,1.231,1.034,1.772
			c-0.05,0.246-0.197,0.32-0.443,0.222c-0.295-0.64-0.616-1.206-0.96-1.698C79.203,32.381,79.326,32.283,79.572,32.332z
			 M81.345,32.849h5.76c0.246,0.148,0.246,0.295,0,0.443H83.56v1.477h2.437c0.787,0,1.156,0.295,1.108,0.886l-0.074,2.215
			c0.098,1.723-0.788,2.387-2.658,1.994c-0.148-0.246-0.099-0.394,0.148-0.443c1.477,0.295,2.166-0.172,2.068-1.403l0.074-2.289
			c0.049-0.344-0.148-0.517-0.591-0.517H83.56c-0.05,2.215-0.788,3.668-2.215,4.357c-0.295,0-0.369-0.123-0.222-0.369
			c1.378-0.689,2.043-2.142,1.994-4.357v-1.551h-1.772C81.148,33.144,81.148,32.996,81.345,32.849z"/>
		<path id="XMLID_226_" fill="#FFFFFF" d="M88.434,34.769c0.492,0.345,1.008,0.886,1.55,1.625c0,0.246-0.123,0.345-0.369,0.295
			c-0.394-0.541-0.886-1.058-1.476-1.551C88.089,34.892,88.187,34.769,88.434,34.769z M90.28,37.132
			c0.196-0.148,0.344-0.098,0.443,0.148c-0.591,1.625-1.329,2.781-2.215,3.471c-0.247,0.098-0.369,0-0.369-0.295
			C89.073,39.667,89.787,38.56,90.28,37.132z M89.025,32.627c0.59,0.542,1.107,1.108,1.55,1.698c0,0.246-0.123,0.345-0.369,0.295
			c-0.394-0.541-0.886-1.083-1.476-1.625C88.68,32.8,88.778,32.677,89.025,32.627z M95.597,32.48
			c0.295,0.05,0.344,0.197,0.148,0.443c-0.394,0.148-1.157,0.32-2.289,0.517v2.658h3.102c0.196,0.148,0.196,0.295,0,0.443h-3.102
			c0.639,1.772,1.772,3.126,3.397,4.062c0.098,0.295,0,0.418-0.295,0.369c-1.576-0.936-2.658-2.166-3.249-3.692
			c-0.493,1.674-1.576,2.904-3.249,3.692c-0.247-0.099-0.295-0.246-0.148-0.443c1.723-0.788,2.757-2.117,3.102-3.988h-2.658
			c-0.197-0.148-0.197-0.295,0-0.443h2.658v-2.585c-0.64,0.099-1.403,0.172-2.289,0.222c-0.197-0.148-0.197-0.295,0-0.443
			C92.298,33.243,93.922,32.972,95.597,32.48z"/>
		<path id="XMLID_214_" fill="#FFFFFF" d="M99.584,34.769c0.246-0.049,0.369,0.05,0.369,0.295c-0.295,0.542-0.616,1.059-0.96,1.551
			v4.209c-0.148,0.246-0.295,0.246-0.443,0v-3.692c-0.394,0.443-0.714,0.714-0.96,0.812c-0.197,0-0.271-0.123-0.222-0.369
			C98.156,36.984,98.894,36.049,99.584,34.769z M99.289,32.48c0.196-0.197,0.344-0.148,0.443,0.148
			c-0.443,1.083-1.059,1.945-1.846,2.585c-0.295,0.05-0.394-0.074-0.295-0.369C98.378,34.154,98.944,33.366,99.289,32.48z
			 M100.618,38.24c-0.099,0.788-0.321,1.501-0.665,2.142c-0.295,0.148-0.419,0.074-0.369-0.222c0.344-0.788,0.541-1.452,0.591-1.994
			C100.371,37.92,100.519,37.944,100.618,38.24z M99.88,36.984h5.908c0.196,0.148,0.196,0.295,0,0.443H99.88
			C99.682,37.28,99.682,37.132,99.88,36.984z M102.612,32.332c0.196-0.197,0.344-0.197,0.443,0l-0.074,0.591h2.806
			c0.246,0.148,0.246,0.295,0,0.443h-2.88l-0.074,0.591h1.92c0.541,0,0.787,0.246,0.738,0.738v0.886
			c0.049,0.542-0.197,0.788-0.738,0.738h-3.84c-0.493,0.05-0.738-0.197-0.738-0.738v-0.886c0-0.492,0.246-0.738,0.738-0.738h1.477
			l0.074-0.591h-2.289c-0.247-0.148-0.247-0.295,0-0.443h2.363L102.612,32.332z M101.8,34.4h-0.738
			c-0.295,0-0.443,0.148-0.443,0.443v0.591c0,0.345,0.148,0.493,0.443,0.443h0.738V34.4z M101.209,38.018
			c0.148-0.197,0.295-0.197,0.443,0v1.846c0,0.344,0.196,0.492,0.591,0.443h1.846c0.394,0.098,0.566-0.222,0.517-0.96
			c0.148-0.246,0.295-0.246,0.443,0c0.049,1.034-0.222,1.501-0.812,1.403h-2.142c-0.591,0.049-0.886-0.197-0.886-0.738V38.018z
			 M103.424,34.4h-1.182v1.477h1.182V34.4z M103.055,37.796c0.295,0.542,0.591,1.182,0.886,1.92
			c-0.099,0.295-0.271,0.344-0.517,0.148c-0.197-0.64-0.468-1.231-0.812-1.772C102.612,37.796,102.76,37.698,103.055,37.796z
			 M104.606,34.4h-0.738v1.477h0.738c0.344,0.05,0.492-0.098,0.443-0.443v-0.591C105.098,34.547,104.95,34.4,104.606,34.4z
			 M105.197,38.018c0.443,0.689,0.763,1.428,0.96,2.215c-0.05,0.295-0.173,0.344-0.369,0.148c-0.247-0.788-0.566-1.501-0.96-2.142
			C104.827,37.944,104.95,37.87,105.197,38.018z"/>
		<path id="XMLID_194_" fill="#FFFFFF" d="M110.218,32.406c0.246,0.05,0.295,0.197,0.148,0.443
			c-0.394,0.099-0.812,0.172-1.255,0.222v1.846h1.329c0.196,0.148,0.196,0.295,0,0.443h-1.182c0.591,0.788,1.083,1.526,1.477,2.215
			c0.049,0.295-0.074,0.394-0.369,0.295c-0.394-0.689-0.812-1.329-1.255-1.92v5.022c-0.148,0.197-0.295,0.197-0.443,0v-4.357
			c-0.345,0.788-0.812,1.551-1.403,2.289c-0.247,0.05-0.345-0.049-0.295-0.295c0.837-1.132,1.378-2.215,1.625-3.249h-1.477
			c-0.197-0.148-0.197-0.295,0-0.443h1.551v-1.772h-1.182c-0.197-0.148-0.197-0.295,0-0.443
			C108.52,32.751,109.43,32.652,110.218,32.406z M114.723,32.553v5.538l0.886-0.148c0.196,0.148,0.196,0.295,0,0.443l-0.886,0.148
			v2.437c-0.148,0.197-0.295,0.197-0.443,0v-2.363l-3.84,0.443c-0.197-0.148-0.197-0.295,0-0.443l3.84-0.443v-5.612
			C114.427,32.307,114.575,32.307,114.723,32.553z M111.252,35.064c0.837,0.788,1.575,1.526,2.215,2.215
			c0.098,0.295-0.025,0.394-0.369,0.295c-0.788-0.837-1.502-1.551-2.142-2.142C110.907,35.187,111.005,35.064,111.252,35.064z
			 M111.843,32.627c0.639,0.64,1.354,1.428,2.142,2.363c0.098,0.295,0,0.419-0.295,0.369c-0.837-0.984-1.551-1.772-2.142-2.363
			C111.498,32.701,111.596,32.578,111.843,32.627z"/>
		<path id="XMLID_190_" fill="#FFFFFF" d="M118.193,32.627V34.4h1.182c0.196,0.148,0.196,0.295,0,0.443h-1.182v2.215
			c0.246-0.148,0.566-0.344,0.96-0.591c0.246,0,0.32,0.123,0.222,0.369c-0.345,0.246-0.738,0.493-1.182,0.738v2.806
			c0,0.541-0.542,0.689-1.625,0.443c-0.148-0.246-0.099-0.394,0.148-0.443c0.738,0.197,1.083,0.172,1.034-0.074v-2.511
			c-0.345,0.197-0.714,0.369-1.108,0.517c-0.247-0.098-0.295-0.246-0.148-0.443c0.394-0.148,0.812-0.344,1.255-0.591v-2.437h-1.182
			c-0.247-0.148-0.247-0.295,0-0.443h1.182v-1.772C117.898,32.381,118.046,32.381,118.193,32.627z M122.181,32.48v1.034h2.511
			c0.246,0.148,0.246,0.295,0,0.443h-2.511v1.477h1.477c0.639,0,0.861,0.295,0.665,0.886c-0.345,0.936-0.96,1.822-1.846,2.658
			c0.837,0.689,1.625,1.206,2.363,1.551c0.246,0.246,0.196,0.394-0.148,0.443c-0.886-0.394-1.748-0.96-2.585-1.698
			c-1.133,0.788-2.265,1.329-3.397,1.625c-0.295-0.099-0.321-0.246-0.074-0.443c1.182-0.345,2.215-0.837,3.102-1.477
			c-0.738-0.837-1.329-1.87-1.772-3.102h-0.295c-0.197-0.148-0.197-0.295,0-0.443h2.068v-1.477h-2.363
			c-0.197-0.148-0.197-0.295,0-0.443h2.363V32.48C121.886,32.283,122.033,32.283,122.181,32.48z M120.409,35.876
			c0.443,1.132,1.009,2.068,1.698,2.806c0.837-0.788,1.427-1.625,1.772-2.511c0.049-0.197-0.05-0.295-0.295-0.295H120.409z"/>
		<path id="XMLID_186_" fill="#FFFFFF" d="M129.64,32.332c0.246-0.098,0.369-0.024,0.369,0.222l-0.369,0.665h4.726
			c0.196,0.148,0.196,0.295,0,0.443h-4.948c-0.443,0.542-0.788,0.936-1.034,1.182h4.505c0.541,0,0.787,0.246,0.738,0.738v4.357
			c0.098,0.64-0.222,0.984-0.96,1.034c-0.247,0-0.665-0.099-1.255-0.295c-0.148-0.197-0.099-0.345,0.148-0.443
			c0.443,0.197,0.787,0.295,1.034,0.295c0.443,0,0.639-0.197,0.591-0.591V38.83h-5.317v1.994c-0.148,0.246-0.295,0.246-0.443,0
			v-5.169c-0.493,0.394-0.985,0.689-1.477,0.886c-0.295,0-0.369-0.123-0.222-0.369c1.477-0.837,2.511-1.674,3.102-2.511h-2.732
			c-0.247-0.148-0.247-0.295,0-0.443h2.954L129.64,32.332z M133.184,35.729c0.049-0.295-0.099-0.443-0.443-0.443h-4.431
			c-0.295,0-0.443,0.148-0.443,0.443v0.886h5.317V35.729z M133.184,37.058h-5.317v1.329h5.317V37.058z"/>
		<path id="XMLID_180_" fill="#FFFFFF" d="M136.36,32.553h0.886c0.541,0,0.787,0.246,0.738,0.738
			c-0.05,0.443-0.222,1.059-0.517,1.846c-0.099,0.148-0.099,0.295,0,0.443c0.639,1.083,0.837,1.945,0.591,2.585
			c-0.197,0.443-0.862,0.566-1.994,0.369v2.289c-0.148,0.197-0.295,0.197-0.443,0v-7.532C135.621,32.8,135.867,32.553,136.36,32.553
			z M137.098,32.996h-0.591c-0.295,0-0.443,0.148-0.443,0.443v4.652c1.083,0.197,1.625,0.123,1.625-0.222
			c0.148-0.492-0.049-1.182-0.591-2.068c-0.148-0.197-0.173-0.443-0.074-0.738c0.246-0.541,0.418-1.083,0.517-1.625
			C137.639,33.144,137.492,32.996,137.098,32.996z M139.461,32.553h2.954c0.541,0,0.787,0.246,0.738,0.738v2.806
			c0.049,0.542-0.197,0.788-0.738,0.738h-1.772c0.148,0.689,0.418,1.28,0.812,1.772c0.787-0.492,1.378-0.96,1.772-1.403
			c0.246,0,0.344,0.123,0.295,0.369c-0.295,0.345-0.886,0.812-1.772,1.403c0.689,0.738,1.378,1.255,2.068,1.551
			c0.148,0.246,0.098,0.394-0.148,0.443c-1.92-0.936-3.077-2.314-3.471-4.135h-1.034v3.249c0,0.295,0.098,0.418,0.295,0.369
			c0.443-0.05,0.984-0.197,1.625-0.443c0.246,0.049,0.295,0.197,0.148,0.443c-0.936,0.344-1.625,0.517-2.068,0.517
			c-0.295,0-0.443-0.246-0.443-0.738v-6.942C138.723,32.8,138.968,32.553,139.461,32.553z M142.267,32.996h-2.658
			c-0.295,0-0.443,0.148-0.443,0.443v1.034h3.545V33.44C142.759,33.144,142.611,32.996,142.267,32.996z M142.71,34.916h-3.545v1.477
			h3.102c0.344,0.05,0.492-0.098,0.443-0.443V34.916z"/>
		<path id="XMLID_165_" fill="#FFFFFF" d="M148.027,32.849c-0.64,1.625-1.674,3.003-3.102,4.135c-0.247,0-0.345-0.098-0.295-0.295
			c1.477-1.28,2.461-2.609,2.954-3.988C147.83,32.504,147.978,32.553,148.027,32.849z M149.061,35.655
			c-0.788,1.526-1.576,2.88-2.363,4.062c-0.197,0.246-0.123,0.344,0.222,0.295c1.427-0.099,3.102-0.246,5.022-0.443
			c-0.345-0.64-0.812-1.452-1.403-2.437c-0.05-0.295,0.074-0.369,0.369-0.222c0.886,1.379,1.575,2.634,2.068,3.766
			c0,0.246-0.123,0.32-0.369,0.222l-0.443-0.886c-2.117,0.197-3.914,0.344-5.391,0.443c-0.69,0.049-0.911-0.172-0.665-0.665
			c0.935-1.329,1.797-2.781,2.585-4.357C148.938,35.286,149.061,35.36,149.061,35.655z M150.39,32.48
			c0.689,1.576,1.723,2.979,3.102,4.209c0.098,0.295,0,0.394-0.295,0.295c-1.428-1.132-2.511-2.585-3.249-4.357
			C149.996,32.332,150.144,32.283,150.39,32.48z"/>
		<path id="XMLID_94_" fill="#FFFFFF" d="M154.378,34.178h6.794c0.196,0.148,0.196,0.295,0,0.443h-6.794
			C154.181,34.523,154.181,34.375,154.378,34.178z M155.116,32.553h6.425c0.591,0,0.861,0.295,0.812,0.886v6.646
			c0.098,0.689-0.419,0.984-1.551,0.886c-0.493-0.05-1.034-0.197-1.625-0.443c-0.099-0.246-0.025-0.394,0.222-0.443
			c1.772,0.591,2.609,0.566,2.511-0.074v-6.351c0.049-0.443-0.123-0.665-0.517-0.665h-6.277
			C154.919,32.849,154.919,32.701,155.116,32.553z M155.707,35.803h4.135c0.541,0,0.787,0.246,0.738,0.738v2.068
			c0.049,0.542-0.197,0.788-0.738,0.738h-4.135c-0.493,0.05-0.738-0.222-0.738-0.812v-1.994
			C154.969,36.049,155.215,35.803,155.707,35.803z M159.695,36.246h-3.84c-0.295,0-0.443,0.148-0.443,0.443v1.772
			c0,0.345,0.148,0.493,0.443,0.443h3.84c0.344,0.05,0.492-0.098,0.443-0.443v-1.772C160.187,36.393,160.039,36.246,159.695,36.246z
			"/>
	</g>
</g>
</svg>